<mxfile host="app.diagrams.net" agent="Mozilla/5.0 (Windows NT 10.0; Win64; x64) AppleWebKit/537.36 (KHTML, like Gecko) Chrome/137.0.0.0 Safari/537.36" version="27.1.6" pages="7">
  <diagram name="Componentes" id="Hr5Lzy8-_08L1F_6YtW8">
    <mxGraphModel dx="3010" dy="828" grid="1" gridSize="10" guides="1" tooltips="1" connect="1" arrows="1" fold="1" page="1" pageScale="1" pageWidth="850" pageHeight="1100" math="0" shadow="0">
      <root>
        <mxCell id="ibalX00g9vt64yQpozJs-0" />
        <mxCell id="ibalX00g9vt64yQpozJs-1" parent="ibalX00g9vt64yQpozJs-0" />
        <mxCell id="ibalX00g9vt64yQpozJs-2" value="&lt;div&gt;&lt;br&gt;&lt;/div&gt;" style="html=1;dropTarget=0;whiteSpace=wrap;" parent="ibalX00g9vt64yQpozJs-1" vertex="1">
          <mxGeometry x="-590" y="200" width="450" height="540" as="geometry" />
        </mxCell>
        <mxCell id="ibalX00g9vt64yQpozJs-3" value="" style="shape=module;jettyWidth=8;jettyHeight=4;" parent="ibalX00g9vt64yQpozJs-2" vertex="1">
          <mxGeometry x="1" width="20" height="20" relative="1" as="geometry">
            <mxPoint x="-27" y="7" as="offset" />
          </mxGeometry>
        </mxCell>
        <mxCell id="ibalX00g9vt64yQpozJs-13" value="&lt;div&gt;&lt;br&gt;&lt;/div&gt;" style="html=1;dropTarget=0;whiteSpace=wrap;" parent="ibalX00g9vt64yQpozJs-1" vertex="1">
          <mxGeometry x="-1000" y="200" width="230" height="280" as="geometry" />
        </mxCell>
        <mxCell id="ibalX00g9vt64yQpozJs-14" value="" style="shape=module;jettyWidth=8;jettyHeight=4;" parent="ibalX00g9vt64yQpozJs-13" vertex="1">
          <mxGeometry x="1" width="20" height="20" relative="1" as="geometry">
            <mxPoint x="-27" y="7" as="offset" />
          </mxGeometry>
        </mxCell>
        <mxCell id="ibalX00g9vt64yQpozJs-4" value="&lt;div&gt;&lt;br&gt;&lt;/div&gt;" style="html=1;dropTarget=0;whiteSpace=wrap;" parent="ibalX00g9vt64yQpozJs-1" vertex="1">
          <mxGeometry x="-1000" y="605" width="230" height="150" as="geometry" />
        </mxCell>
        <mxCell id="ibalX00g9vt64yQpozJs-5" value="" style="shape=module;jettyWidth=8;jettyHeight=4;" parent="ibalX00g9vt64yQpozJs-4" vertex="1">
          <mxGeometry x="1" width="20" height="20" relative="1" as="geometry">
            <mxPoint x="-27" y="7" as="offset" />
          </mxGeometry>
        </mxCell>
        <mxCell id="UevffBtBP-o2EY0w1ZIJ-2" value="" style="rounded=0;orthogonalLoop=1;jettySize=auto;html=1;" parent="ibalX00g9vt64yQpozJs-1" source="ibalX00g9vt64yQpozJs-6" target="Fhr26TY9afIAGjRqi2eX-6" edge="1">
          <mxGeometry relative="1" as="geometry">
            <mxPoint x="-790" y="420" as="targetPoint" />
          </mxGeometry>
        </mxCell>
        <mxCell id="CGJvHUNieDKuwBb52tQV-4" style="edgeStyle=orthogonalEdgeStyle;rounded=0;orthogonalLoop=1;jettySize=auto;html=1;startArrow=none;startFill=0;" parent="ibalX00g9vt64yQpozJs-1" source="ibalX00g9vt64yQpozJs-6" target="YT_dUnnxunZ9NrD1JXKK-0" edge="1">
          <mxGeometry relative="1" as="geometry">
            <Array as="points">
              <mxPoint x="-165" y="460" />
              <mxPoint x="-165" y="491" />
            </Array>
          </mxGeometry>
        </mxCell>
        <mxCell id="M53GRtngGgM_h6OnEpN9-3" style="rounded=0;orthogonalLoop=1;jettySize=auto;html=1;" parent="ibalX00g9vt64yQpozJs-1" source="ibalX00g9vt64yQpozJs-6" target="vuIAr291Dgmtw0vhvdgS-3" edge="1">
          <mxGeometry relative="1" as="geometry" />
        </mxCell>
        <mxCell id="ibalX00g9vt64yQpozJs-6" value="&lt;div&gt;«Microservicio»&lt;b&gt;&lt;br&gt;&lt;/b&gt;&lt;/div&gt;&lt;div&gt;&lt;b&gt;pin-management&lt;/b&gt;&lt;br&gt;&lt;/div&gt;&lt;div&gt;&lt;b&gt;+ MPT3&lt;/b&gt;&lt;/div&gt;&lt;div&gt;&lt;br&gt;&lt;/div&gt;&lt;div&gt;&lt;b&gt;&lt;br&gt;&lt;/b&gt;&lt;/div&gt;&lt;div&gt;&lt;b&gt;&lt;br&gt;&lt;/b&gt;&lt;/div&gt;&lt;div&gt;&lt;b&gt;&lt;br&gt;&lt;/b&gt;&lt;/div&gt;&lt;div&gt;&lt;b&gt;&lt;br&gt;&lt;/b&gt;&lt;/div&gt;&lt;div&gt;&lt;b&gt;&lt;br&gt;&lt;/b&gt;&lt;/div&gt;&lt;div&gt;&lt;b&gt;&lt;br&gt;&lt;/b&gt;&lt;/div&gt;&lt;div&gt;&lt;b&gt;&lt;br&gt;&lt;/b&gt;&lt;/div&gt;" style="html=1;dropTarget=0;whiteSpace=wrap;fillColor=#d5e8d4;strokeColor=#82b366;" parent="ibalX00g9vt64yQpozJs-1" vertex="1">
          <mxGeometry x="-440" y="270" width="180" height="200" as="geometry" />
        </mxCell>
        <mxCell id="ibalX00g9vt64yQpozJs-7" value="" style="shape=module;jettyWidth=8;jettyHeight=4;" parent="ibalX00g9vt64yQpozJs-6" vertex="1">
          <mxGeometry x="1" width="20" height="20" relative="1" as="geometry">
            <mxPoint x="-27" y="7" as="offset" />
          </mxGeometry>
        </mxCell>
        <mxCell id="ibalX00g9vt64yQpozJs-10" value="" style="html=1;verticalAlign=bottom;endArrow=block;rounded=0;" parent="ibalX00g9vt64yQpozJs-1" source="1r6Sa9GpILCDG1rnr68h-0" target="Xr6SCrK0ljmYc6vUD68w-12" edge="1">
          <mxGeometry width="80" relative="1" as="geometry">
            <mxPoint x="-270" y="523" as="sourcePoint" />
            <mxPoint x="165" y="408" as="targetPoint" />
            <mxPoint as="offset" />
          </mxGeometry>
        </mxCell>
        <mxCell id="ibalX00g9vt64yQpozJs-15" value="" style="rounded=0;whiteSpace=wrap;html=1;fillColor=#d5e8d4;strokeColor=#82b366;" parent="ibalX00g9vt64yQpozJs-1" vertex="1">
          <mxGeometry x="-1301" y="50" width="50" height="20" as="geometry" />
        </mxCell>
        <mxCell id="ibalX00g9vt64yQpozJs-16" value="Componente Nuevo" style="text;html=1;strokeColor=none;fillColor=none;align=left;verticalAlign=middle;whiteSpace=wrap;rounded=0;" parent="ibalX00g9vt64yQpozJs-1" vertex="1">
          <mxGeometry x="-1241" y="50" width="110" height="20" as="geometry" />
        </mxCell>
        <mxCell id="ibalX00g9vt64yQpozJs-17" value="" style="rounded=0;whiteSpace=wrap;html=1;fillColor=#fff2cc;strokeColor=#d6b656;" parent="ibalX00g9vt64yQpozJs-1" vertex="1">
          <mxGeometry x="-1301" y="80" width="50" height="20" as="geometry" />
        </mxCell>
        <mxCell id="ibalX00g9vt64yQpozJs-18" value="Componente reutilizado" style="text;html=1;strokeColor=none;fillColor=none;align=left;verticalAlign=middle;whiteSpace=wrap;rounded=0;" parent="ibalX00g9vt64yQpozJs-1" vertex="1">
          <mxGeometry x="-1241" y="80" width="130" height="20" as="geometry" />
        </mxCell>
        <mxCell id="ibalX00g9vt64yQpozJs-19" value="" style="rounded=0;whiteSpace=wrap;html=1;fillColor=#e1d5e7;strokeColor=#9673a6;" parent="ibalX00g9vt64yQpozJs-1" vertex="1">
          <mxGeometry x="-1301" y="141" width="50" height="20" as="geometry" />
        </mxCell>
        <mxCell id="ibalX00g9vt64yQpozJs-20" value="Componentes / estructuras en infraestructura transversal" style="text;html=1;strokeColor=none;fillColor=none;align=left;verticalAlign=middle;whiteSpace=wrap;rounded=0;" parent="ibalX00g9vt64yQpozJs-1" vertex="1">
          <mxGeometry x="-1241" y="141" width="350" height="20" as="geometry" />
        </mxCell>
        <mxCell id="ibalX00g9vt64yQpozJs-21" value="&lt;div&gt;«Log component»&lt;b&gt;&lt;br&gt;&lt;/b&gt;&lt;/div&gt;&lt;div&gt;&lt;b&gt;Kafka Cluster&lt;/b&gt;&lt;/div&gt;" style="html=1;dropTarget=0;whiteSpace=wrap;fillColor=#e1d5e7;strokeColor=#9673a6;" parent="ibalX00g9vt64yQpozJs-1" vertex="1">
          <mxGeometry x="-70" y="322.5" width="180" height="90" as="geometry" />
        </mxCell>
        <mxCell id="ibalX00g9vt64yQpozJs-22" value="" style="shape=module;jettyWidth=8;jettyHeight=4;" parent="ibalX00g9vt64yQpozJs-21" vertex="1">
          <mxGeometry x="1" width="20" height="20" relative="1" as="geometry">
            <mxPoint x="-27" y="7" as="offset" />
          </mxGeometry>
        </mxCell>
        <mxCell id="mw78Khjm8ICX6KQG7Wsu-0" value="«Canales Santander MX»" style="text;html=1;align=center;verticalAlign=middle;whiteSpace=wrap;rounded=0;" parent="ibalX00g9vt64yQpozJs-1" vertex="1">
          <mxGeometry x="-955" y="605" width="140" height="30" as="geometry" />
        </mxCell>
        <mxCell id="mw78Khjm8ICX6KQG7Wsu-1" value="&lt;div&gt;«Plataforma Altair»&lt;b&gt;&lt;br&gt;&lt;/b&gt;&lt;/div&gt;&lt;div&gt;&lt;b&gt;Terminal Financiero&lt;/b&gt;&lt;/div&gt;&lt;div&gt;&lt;b&gt;CENTEL&lt;/b&gt;&lt;/div&gt;&lt;div&gt;&lt;b&gt;SuperMovil&lt;/b&gt;&lt;/div&gt;&lt;div&gt;&lt;b&gt;IVR&lt;/b&gt;&lt;/div&gt;&lt;div&gt;&lt;b&gt;FMP&lt;/b&gt;&lt;/div&gt;" style="html=1;dropTarget=0;whiteSpace=wrap;fillColor=#fff2cc;strokeColor=#d6b656;" parent="ibalX00g9vt64yQpozJs-1" vertex="1">
          <mxGeometry x="-975" y="645" width="180" height="90" as="geometry" />
        </mxCell>
        <mxCell id="mw78Khjm8ICX6KQG7Wsu-2" value="" style="shape=module;jettyWidth=8;jettyHeight=4;" parent="mw78Khjm8ICX6KQG7Wsu-1" vertex="1">
          <mxGeometry x="1" width="20" height="20" relative="1" as="geometry">
            <mxPoint x="-27" y="7" as="offset" />
          </mxGeometry>
        </mxCell>
        <mxCell id="mw78Khjm8ICX6KQG7Wsu-7" value="" style="html=1;verticalAlign=bottom;endArrow=block;rounded=0;edgeStyle=orthogonalEdgeStyle;exitX=1;exitY=0.5;exitDx=0;exitDy=0;" parent="ibalX00g9vt64yQpozJs-1" source="ibalX00g9vt64yQpozJs-4" target="CGJvHUNieDKuwBb52tQV-0" edge="1">
          <mxGeometry x="0.0016" width="80" relative="1" as="geometry">
            <mxPoint x="-705" y="595" as="sourcePoint" />
            <mxPoint x="-350" y="439" as="targetPoint" />
            <mxPoint as="offset" />
          </mxGeometry>
        </mxCell>
        <mxCell id="CGJvHUNieDKuwBb52tQV-2" style="edgeStyle=orthogonalEdgeStyle;rounded=0;orthogonalLoop=1;jettySize=auto;html=1;" parent="ibalX00g9vt64yQpozJs-1" source="KAskMvH-FdpNS457HAVK-10" target="CGJvHUNieDKuwBb52tQV-0" edge="1">
          <mxGeometry relative="1" as="geometry" />
        </mxCell>
        <mxCell id="WAyySOAWvUpvXSL9j0dH-3" style="edgeStyle=orthogonalEdgeStyle;rounded=0;orthogonalLoop=1;jettySize=auto;html=1;" parent="ibalX00g9vt64yQpozJs-1" source="KAskMvH-FdpNS457HAVK-10" target="WAyySOAWvUpvXSL9j0dH-2" edge="1">
          <mxGeometry relative="1" as="geometry">
            <Array as="points">
              <mxPoint x="-480" y="760" />
              <mxPoint x="-480" y="760" />
            </Array>
            <mxPoint x="-614.3199999999999" y="850.000909090909" as="sourcePoint" />
          </mxGeometry>
        </mxCell>
        <mxCell id="uwjMrfqby6ekMZz9i17e-2" style="edgeStyle=orthogonalEdgeStyle;rounded=0;orthogonalLoop=1;jettySize=auto;html=1;" parent="ibalX00g9vt64yQpozJs-1" source="mw78Khjm8ICX6KQG7Wsu-5" target="uwjMrfqby6ekMZz9i17e-0" edge="1">
          <mxGeometry relative="1" as="geometry" />
        </mxCell>
        <mxCell id="mw78Khjm8ICX6KQG7Wsu-5" value="&lt;div&gt;«Microservicio»&lt;b&gt;&lt;br&gt;&lt;/b&gt;&lt;/div&gt;&lt;div&gt;&lt;b&gt;Starter (splitter)&lt;/b&gt;&lt;/div&gt;&lt;div&gt;&lt;b&gt;&lt;br&gt;&lt;/b&gt;&lt;/div&gt;&lt;div&gt;&lt;b&gt;&lt;br&gt;&lt;/b&gt;&lt;/div&gt;" style="html=1;dropTarget=0;whiteSpace=wrap;fillColor=#fff2cc;strokeColor=#d6b656;" parent="ibalX00g9vt64yQpozJs-1" vertex="1">
          <mxGeometry x="-340" y="630" width="180" height="90" as="geometry" />
        </mxCell>
        <mxCell id="mw78Khjm8ICX6KQG7Wsu-6" value="" style="shape=module;jettyWidth=8;jettyHeight=4;" parent="mw78Khjm8ICX6KQG7Wsu-5" vertex="1">
          <mxGeometry x="1" width="20" height="20" relative="1" as="geometry">
            <mxPoint x="-27" y="7" as="offset" />
          </mxGeometry>
        </mxCell>
        <mxCell id="YT_dUnnxunZ9NrD1JXKK-2" style="edgeStyle=orthogonalEdgeStyle;rounded=0;orthogonalLoop=1;jettySize=auto;html=1;startArrow=none;startFill=0;" parent="ibalX00g9vt64yQpozJs-1" source="mw78Khjm8ICX6KQG7Wsu-5" target="YT_dUnnxunZ9NrD1JXKK-0" edge="1">
          <mxGeometry relative="1" as="geometry">
            <mxPoint x="-290" y="513" as="sourcePoint" />
            <Array as="points">
              <mxPoint x="20" y="670" />
            </Array>
          </mxGeometry>
        </mxCell>
        <mxCell id="mw78Khjm8ICX6KQG7Wsu-16" value="&lt;div&gt;«Capa de Integración»&lt;/div&gt;" style="text;html=1;align=center;verticalAlign=middle;whiteSpace=wrap;rounded=0;" parent="ibalX00g9vt64yQpozJs-1" vertex="1">
          <mxGeometry x="-421" y="200" width="140" height="30" as="geometry" />
        </mxCell>
        <mxCell id="k2TCZtdQKbIll1BBhbGv-0" value="&lt;div&gt;«Plataforma PLARD»&lt;/div&gt;" style="text;html=1;align=center;verticalAlign=middle;whiteSpace=wrap;rounded=0;" parent="ibalX00g9vt64yQpozJs-1" vertex="1">
          <mxGeometry x="-945" y="200" width="120" height="30" as="geometry" />
        </mxCell>
        <mxCell id="CGJvHUNieDKuwBb52tQV-0" value="&lt;div&gt;«Message Queue»&lt;b&gt;&lt;br&gt;&lt;/b&gt;&lt;/div&gt;&lt;div&gt;&lt;b&gt;MQ Open&lt;/b&gt;&lt;/div&gt;" style="rounded=0;whiteSpace=wrap;html=1;" parent="ibalX00g9vt64yQpozJs-1" vertex="1">
          <mxGeometry x="-740" y="650" width="120" height="60" as="geometry" />
        </mxCell>
        <mxCell id="WAyySOAWvUpvXSL9j0dH-0" value="" style="html=1;dropTarget=0;whiteSpace=wrap;" parent="ibalX00g9vt64yQpozJs-1" vertex="1">
          <mxGeometry x="-653.37" y="955" width="350" height="145" as="geometry" />
        </mxCell>
        <mxCell id="WAyySOAWvUpvXSL9j0dH-1" value="" style="shape=module;jettyWidth=8;jettyHeight=4;" parent="WAyySOAWvUpvXSL9j0dH-0" vertex="1">
          <mxGeometry x="1" width="20" height="20" relative="1" as="geometry">
            <mxPoint x="-27" y="7" as="offset" />
          </mxGeometry>
        </mxCell>
        <mxCell id="WAyySOAWvUpvXSL9j0dH-2" value="&lt;div&gt;«Message Queue»&lt;b&gt;&lt;br&gt;&lt;/b&gt;&lt;/div&gt;&lt;div&gt;&lt;b&gt;MQ 390&lt;/b&gt;&lt;/div&gt;" style="rounded=0;whiteSpace=wrap;html=1;" parent="ibalX00g9vt64yQpozJs-1" vertex="1">
          <mxGeometry x="-538.3699999999999" y="800" width="120" height="60" as="geometry" />
        </mxCell>
        <mxCell id="WAyySOAWvUpvXSL9j0dH-8" value="&lt;div&gt;«Mainframe»&lt;/div&gt;" style="text;html=1;align=center;verticalAlign=middle;whiteSpace=wrap;rounded=0;" parent="ibalX00g9vt64yQpozJs-1" vertex="1">
          <mxGeometry x="-545.8699999999999" y="955.0000000000001" width="120" height="30" as="geometry" />
        </mxCell>
        <mxCell id="WAyySOAWvUpvXSL9j0dH-9" value="&lt;div style=&quot;text-align: center;&quot;&gt;&lt;b style=&quot;background-color: transparent; color: light-dark(rgb(0, 0, 0), rgb(255, 255, 255));&quot;&gt;«PAMPA»&lt;/b&gt;&lt;/div&gt;&lt;b&gt;MPT3&lt;/b&gt; (MOD. Nº INTENTOS DE PIN)" style="html=1;dropTarget=0;whiteSpace=wrap;fillColor=#fff2cc;strokeColor=#d6b656;align=left;" parent="ibalX00g9vt64yQpozJs-1" vertex="1">
          <mxGeometry x="-638.37" y="985" width="305" height="95" as="geometry" />
        </mxCell>
        <mxCell id="WAyySOAWvUpvXSL9j0dH-10" value="" style="shape=module;jettyWidth=8;jettyHeight=4;" parent="WAyySOAWvUpvXSL9j0dH-9" vertex="1">
          <mxGeometry x="1" width="20" height="20" relative="1" as="geometry">
            <mxPoint x="-27" y="7" as="offset" />
          </mxGeometry>
        </mxCell>
        <mxCell id="YT_dUnnxunZ9NrD1JXKK-0" value="&lt;div&gt;«Event component»&lt;b&gt;&lt;br&gt;&lt;/b&gt;&lt;/div&gt;&lt;div&gt;&lt;b&gt;Redis Streams&lt;/b&gt;&lt;/div&gt;" style="html=1;dropTarget=0;whiteSpace=wrap;fillColor=#e1d5e7;strokeColor=#9673a6;" parent="ibalX00g9vt64yQpozJs-1" vertex="1">
          <mxGeometry x="-70" y="446" width="180" height="90" as="geometry" />
        </mxCell>
        <mxCell id="YT_dUnnxunZ9NrD1JXKK-1" value="" style="shape=module;jettyWidth=8;jettyHeight=4;" parent="YT_dUnnxunZ9NrD1JXKK-0" vertex="1">
          <mxGeometry x="1" width="20" height="20" relative="1" as="geometry">
            <mxPoint x="-27" y="7" as="offset" />
          </mxGeometry>
        </mxCell>
        <mxCell id="Fhr26TY9afIAGjRqi2eX-6" value="&lt;div&gt;«Service»&lt;b&gt;&lt;br&gt;&lt;/b&gt;&lt;/div&gt;&lt;div&gt;&lt;div style=&quot;&quot;&gt;&lt;span style=&quot;background-color: transparent;&quot;&gt;&lt;b&gt;Card Security&lt;/b&gt;&lt;/span&gt;&lt;/div&gt;&lt;/div&gt;" style="html=1;dropTarget=0;whiteSpace=wrap;fillColor=#fff2cc;strokeColor=#d6b656;" parent="ibalX00g9vt64yQpozJs-1" vertex="1">
          <mxGeometry x="-975" y="370" width="180" height="90" as="geometry" />
        </mxCell>
        <mxCell id="Fhr26TY9afIAGjRqi2eX-7" value="" style="shape=module;jettyWidth=8;jettyHeight=4;" parent="Fhr26TY9afIAGjRqi2eX-6" vertex="1">
          <mxGeometry x="1" width="20" height="20" relative="1" as="geometry">
            <mxPoint x="-27" y="7" as="offset" />
          </mxGeometry>
        </mxCell>
        <mxCell id="Xr6SCrK0ljmYc6vUD68w-10" value="" style="group;fontColor=#FFFFFF;" parent="ibalX00g9vt64yQpozJs-1" vertex="1" connectable="0">
          <mxGeometry x="-180" y="386.75" width="20" height="20" as="geometry" />
        </mxCell>
        <mxCell id="Xr6SCrK0ljmYc6vUD68w-11" value="" style="ellipse;whiteSpace=wrap;html=1;aspect=fixed;fillColor=#6a00ff;strokeColor=#3700CC;fontColor=#ffffff;" parent="Xr6SCrK0ljmYc6vUD68w-10" vertex="1">
          <mxGeometry width="20" height="20" as="geometry" />
        </mxCell>
        <mxCell id="Xr6SCrK0ljmYc6vUD68w-12" value="ka" style="text;html=1;align=center;verticalAlign=middle;whiteSpace=wrap;rounded=0;fontColor=#FFFFFF;" parent="Xr6SCrK0ljmYc6vUD68w-10" vertex="1">
          <mxGeometry width="20" height="20" as="geometry" />
        </mxCell>
        <mxCell id="Xr6SCrK0ljmYc6vUD68w-13" value="" style="group;fontColor=#FFFFFF;" parent="ibalX00g9vt64yQpozJs-1" vertex="1" connectable="0">
          <mxGeometry x="-120" y="357.5" width="20" height="20" as="geometry" />
        </mxCell>
        <mxCell id="Xr6SCrK0ljmYc6vUD68w-14" value="" style="ellipse;whiteSpace=wrap;html=1;aspect=fixed;fillColor=#6a00ff;strokeColor=#3700CC;fontColor=#ffffff;" parent="Xr6SCrK0ljmYc6vUD68w-13" vertex="1">
          <mxGeometry width="20" height="20" as="geometry" />
        </mxCell>
        <mxCell id="Xr6SCrK0ljmYc6vUD68w-15" value="ka" style="text;html=1;align=center;verticalAlign=middle;whiteSpace=wrap;rounded=0;fontColor=#FFFFFF;" parent="Xr6SCrK0ljmYc6vUD68w-13" vertex="1">
          <mxGeometry width="20" height="20" as="geometry" />
        </mxCell>
        <mxCell id="Xr6SCrK0ljmYc6vUD68w-16" style="edgeStyle=orthogonalEdgeStyle;rounded=0;orthogonalLoop=1;jettySize=auto;html=1;" parent="ibalX00g9vt64yQpozJs-1" source="Xr6SCrK0ljmYc6vUD68w-15" target="ibalX00g9vt64yQpozJs-21" edge="1">
          <mxGeometry relative="1" as="geometry" />
        </mxCell>
        <mxCell id="HCLQA8r3Dd-Hja26W3VV-4" value="" style="verticalLabelPosition=bottom;verticalAlign=top;html=1;shape=mxgraph.basic.star;fillColor=#f0a30a;fontColor=#000000;strokeColor=#BD7000;aspect=fixed;" parent="ibalX00g9vt64yQpozJs-1" vertex="1">
          <mxGeometry x="-1296" width="40" height="38" as="geometry" />
        </mxCell>
        <mxCell id="HCLQA8r3Dd-Hja26W3VV-5" value="Fuera del alcance" style="text;html=1;strokeColor=none;fillColor=none;align=left;verticalAlign=middle;whiteSpace=wrap;rounded=0;" parent="ibalX00g9vt64yQpozJs-1" vertex="1">
          <mxGeometry x="-1241" y="9" width="110" height="20" as="geometry" />
        </mxCell>
        <mxCell id="hjO6V6hpEGbDNPk5ZwKX-18" style="edgeStyle=orthogonalEdgeStyle;rounded=0;orthogonalLoop=1;jettySize=auto;html=1;exitX=0.5;exitY=1;exitDx=0;exitDy=0;" parent="ibalX00g9vt64yQpozJs-1" edge="1">
          <mxGeometry relative="1" as="geometry">
            <mxPoint x="-270.87" y="1145" as="sourcePoint" />
            <mxPoint x="-270.87" y="1145" as="targetPoint" />
          </mxGeometry>
        </mxCell>
        <mxCell id="tE9yIkzxRazClJXOlSwS-3" value="" style="rounded=0;whiteSpace=wrap;html=1;gradientDirection=east;fillColor=#bac8d3;opacity=20;strokeColor=#23445d;sketch=1;curveFitting=1;jiggle=2;shadow=0;glass=0;" parent="ibalX00g9vt64yQpozJs-1" vertex="1">
          <mxGeometry x="-660" width="560" height="60" as="geometry" />
        </mxCell>
        <mxCell id="tE9yIkzxRazClJXOlSwS-4" value="&lt;i&gt;pin-management&lt;/i&gt;" style="text;html=1;align=center;verticalAlign=middle;whiteSpace=wrap;rounded=0;fontFamily=Tahoma;fontSize=20;fontStyle=0;labelBackgroundColor=none;" parent="ibalX00g9vt64yQpozJs-1" vertex="1">
          <mxGeometry x="-660" y="15" width="560" height="30" as="geometry" />
        </mxCell>
        <mxCell id="tE9yIkzxRazClJXOlSwS-11" value="&lt;div style=&quot;text-align: left;&quot;&gt;&lt;span style=&quot;background-color: transparent; color: light-dark(rgb(0, 0, 0), rgb(255, 255, 255)); font-size: 12px; text-align: center;&quot;&gt;(GET)&amp;nbsp;&lt;/span&gt;&lt;span style=&quot;background-color: transparent; font-size: 12px;&quot;&gt;/v1/jwks&lt;/span&gt;&lt;/div&gt;" style="rounded=0;whiteSpace=wrap;html=1;align=left;fontSize=11;" parent="ibalX00g9vt64yQpozJs-1" vertex="1">
          <mxGeometry x="-1310" y="284" width="300" height="27" as="geometry" />
        </mxCell>
        <mxCell id="tE9yIkzxRazClJXOlSwS-12" value="6" style="rounded=0;whiteSpace=wrap;html=1;fillColor=#bac8d3;strokeColor=#23445d;fontStyle=1" parent="ibalX00g9vt64yQpozJs-1" vertex="1">
          <mxGeometry x="-1350" y="284" width="40" height="27" as="geometry" />
        </mxCell>
        <mxCell id="tE9yIkzxRazClJXOlSwS-18" value="Input" style="rounded=0;whiteSpace=wrap;html=1;fillColor=#bac8d3;strokeColor=#23445d;fontStyle=1" parent="ibalX00g9vt64yQpozJs-1" vertex="1">
          <mxGeometry x="-1301" y="810" width="270" height="20" as="geometry" />
        </mxCell>
        <mxCell id="tE9yIkzxRazClJXOlSwS-20" value="Output" style="rounded=0;whiteSpace=wrap;html=1;fillColor=#bac8d3;strokeColor=#23445d;fontStyle=1" parent="ibalX00g9vt64yQpozJs-1" vertex="1">
          <mxGeometry x="-1031" y="810" width="280" height="20" as="geometry" />
        </mxCell>
        <mxCell id="tE9yIkzxRazClJXOlSwS-21" value="Redis Stream" style="rounded=0;whiteSpace=wrap;html=1;fillColor=#bac8d3;strokeColor=#23445d;fontStyle=1" parent="ibalX00g9vt64yQpozJs-1" vertex="1">
          <mxGeometry x="-1301" y="790" width="550" height="20" as="geometry" />
        </mxCell>
        <mxCell id="uwjMrfqby6ekMZz9i17e-0" value="&lt;div&gt;«Microservicio»&lt;b&gt;&lt;br&gt;&lt;/b&gt;&lt;/div&gt;&lt;div&gt;&lt;b&gt;CardPlaceLocator&lt;/b&gt;&lt;/div&gt;" style="html=1;dropTarget=0;whiteSpace=wrap;fillColor=#fff2cc;strokeColor=#d6b656;" parent="ibalX00g9vt64yQpozJs-1" vertex="1">
          <mxGeometry x="-340" y="790" width="180" height="90" as="geometry" />
        </mxCell>
        <mxCell id="uwjMrfqby6ekMZz9i17e-1" value="" style="shape=module;jettyWidth=8;jettyHeight=4;" parent="uwjMrfqby6ekMZz9i17e-0" vertex="1">
          <mxGeometry x="1" width="20" height="20" relative="1" as="geometry">
            <mxPoint x="-27" y="7" as="offset" />
          </mxGeometry>
        </mxCell>
        <mxCell id="uwjMrfqby6ekMZz9i17e-3" value="&amp;lt;&amp;lt;Componente&amp;gt;&amp;gt;&lt;div&gt;CardPlaceLocatorLibrary&lt;/div&gt;" style="rounded=0;whiteSpace=wrap;html=1;fillColor=#fff2cc;strokeColor=#d6b656;" parent="ibalX00g9vt64yQpozJs-1" vertex="1">
          <mxGeometry x="-314" y="682.5" width="150" height="35" as="geometry" />
        </mxCell>
        <mxCell id="uwjMrfqby6ekMZz9i17e-30" value="&lt;div&gt;«Cache»&lt;b&gt;&lt;br&gt;&lt;/b&gt;&lt;/div&gt;&lt;div&gt;&lt;b&gt;Redis Cache&lt;/b&gt;&lt;/div&gt;" style="html=1;dropTarget=0;whiteSpace=wrap;fillColor=#e1d5e7;strokeColor=#9673a6;" parent="ibalX00g9vt64yQpozJs-1" vertex="1">
          <mxGeometry x="-70" y="217.5" width="180" height="90" as="geometry" />
        </mxCell>
        <mxCell id="uwjMrfqby6ekMZz9i17e-31" value="" style="shape=module;jettyWidth=8;jettyHeight=4;" parent="uwjMrfqby6ekMZz9i17e-30" vertex="1">
          <mxGeometry x="1" width="20" height="20" relative="1" as="geometry">
            <mxPoint x="-27" y="7" as="offset" />
          </mxGeometry>
        </mxCell>
        <mxCell id="uwjMrfqby6ekMZz9i17e-46" style="rounded=0;orthogonalLoop=1;jettySize=auto;html=1;" parent="ibalX00g9vt64yQpozJs-1" source="WAyySOAWvUpvXSL9j0dH-2" target="WAyySOAWvUpvXSL9j0dH-0" edge="1">
          <mxGeometry relative="1" as="geometry">
            <mxPoint x="-362.37" y="871" as="sourcePoint" />
            <mxPoint x="-389.37" y="965.0000000000001" as="targetPoint" />
          </mxGeometry>
        </mxCell>
        <mxCell id="hMstRg2Ig_kQ_GUPlxNX-0" value="" style="rounded=0;whiteSpace=wrap;html=1;fillColor=#f8cecc;strokeColor=#b85450;" parent="ibalX00g9vt64yQpozJs-1" vertex="1">
          <mxGeometry x="-1301" y="111" width="50" height="20" as="geometry" />
        </mxCell>
        <mxCell id="hMstRg2Ig_kQ_GUPlxNX-1" value="Componente reutilizado con modificaciones" style="text;html=1;strokeColor=none;fillColor=none;align=left;verticalAlign=middle;whiteSpace=wrap;rounded=0;" parent="ibalX00g9vt64yQpozJs-1" vertex="1">
          <mxGeometry x="-1241" y="111" width="240" height="20" as="geometry" />
        </mxCell>
        <mxCell id="vuIAr291Dgmtw0vhvdgS-3" value="&lt;div&gt;«Service»&lt;b&gt;&lt;br&gt;&lt;/b&gt;&lt;/div&gt;&lt;div&gt;&lt;div style=&quot;&quot;&gt;&lt;b&gt;cadastral-domain-api&lt;/b&gt;&lt;br&gt;&lt;/div&gt;&lt;/div&gt;" style="html=1;dropTarget=0;whiteSpace=wrap;fillColor=#fff2cc;strokeColor=#d6b656;" parent="ibalX00g9vt64yQpozJs-1" vertex="1">
          <mxGeometry x="-975" y="268.5" width="180" height="90" as="geometry" />
        </mxCell>
        <mxCell id="vuIAr291Dgmtw0vhvdgS-4" value="" style="shape=module;jettyWidth=8;jettyHeight=4;" parent="vuIAr291Dgmtw0vhvdgS-3" vertex="1">
          <mxGeometry x="1" width="20" height="20" relative="1" as="geometry">
            <mxPoint x="-27" y="7" as="offset" />
          </mxGeometry>
        </mxCell>
        <mxCell id="vuIAr291Dgmtw0vhvdgS-44" value="&lt;div style=&quot;text-align: left;&quot;&gt;&lt;span style=&quot;background-color: transparent; color: light-dark(rgb(0, 0, 0), rgb(255, 255, 255)); font-size: 12px; text-align: center;&quot;&gt;(POST)&amp;nbsp;&lt;/span&gt;&lt;span style=&quot;background-color: transparent; font-size: 12px;&quot;&gt;/{card_id}/reset_pin_attempts&lt;/span&gt;&lt;/div&gt;" style="rounded=0;whiteSpace=wrap;html=1;align=left;fontSize=11;" parent="ibalX00g9vt64yQpozJs-1" vertex="1">
          <mxGeometry x="-1310" y="352.25" width="300" height="27" as="geometry" />
        </mxCell>
        <mxCell id="vuIAr291Dgmtw0vhvdgS-45" value="5" style="rounded=0;whiteSpace=wrap;html=1;fillColor=#bac8d3;strokeColor=#23445d;fontStyle=1" parent="ibalX00g9vt64yQpozJs-1" vertex="1">
          <mxGeometry x="-1350" y="352.25" width="40" height="27" as="geometry" />
        </mxCell>
        <mxCell id="oakPpAx6F8EtuWaysGjp-0" value="&amp;lt;&amp;lt;Componente&amp;gt;&amp;gt;&lt;div&gt;Multi-Redis-Factory&lt;/div&gt;" style="rounded=0;whiteSpace=wrap;html=1;fillColor=#fff2cc;strokeColor=#d6b656;" parent="ibalX00g9vt64yQpozJs-1" vertex="1">
          <mxGeometry x="-420" y="421" width="150" height="35" as="geometry" />
        </mxCell>
        <mxCell id="1r6Sa9GpILCDG1rnr68h-0" value="&amp;lt;&amp;lt;Componente&amp;gt;&amp;gt;&lt;div&gt;kafka-message-logging&lt;br&gt;&lt;/div&gt;" style="rounded=0;whiteSpace=wrap;html=1;fillColor=#fff2cc;strokeColor=#d6b656;" parent="ibalX00g9vt64yQpozJs-1" vertex="1">
          <mxGeometry x="-421" y="380.25" width="150" height="35" as="geometry" />
        </mxCell>
        <mxCell id="4cDpuZeNhOzvtEna1IyU-1" value="&amp;lt;&amp;lt;Componente&amp;gt;&amp;gt;&lt;div&gt;message-format&lt;br&gt;&lt;/div&gt;" style="rounded=0;whiteSpace=wrap;html=1;fillColor=#fff2cc;strokeColor=#d6b656;" parent="ibalX00g9vt64yQpozJs-1" vertex="1">
          <mxGeometry x="-421" y="343" width="150" height="35" as="geometry" />
        </mxCell>
        <mxCell id="1Mr-ZVO140pDe_VQ_S3K-0" style="edgeStyle=orthogonalEdgeStyle;rounded=0;orthogonalLoop=1;jettySize=auto;html=1;startArrow=none;startFill=0;entryX=0;entryY=0.5;entryDx=0;entryDy=0;exitX=1;exitY=0.3;exitDx=0;exitDy=0;exitPerimeter=0;" parent="ibalX00g9vt64yQpozJs-1" source="ibalX00g9vt64yQpozJs-6" target="uwjMrfqby6ekMZz9i17e-30" edge="1">
          <mxGeometry relative="1" as="geometry">
            <Array as="points">
              <mxPoint x="-165" y="330" />
              <mxPoint x="-165" y="262" />
            </Array>
            <mxPoint x="-260" y="268.5" as="sourcePoint" />
            <mxPoint x="-70" y="299.5" as="targetPoint" />
          </mxGeometry>
        </mxCell>
        <mxCell id="KAskMvH-FdpNS457HAVK-15" style="edgeStyle=orthogonalEdgeStyle;rounded=0;orthogonalLoop=1;jettySize=auto;html=1;entryX=0.25;entryY=1;entryDx=0;entryDy=0;" parent="ibalX00g9vt64yQpozJs-1" source="KAskMvH-FdpNS457HAVK-10" target="YT_dUnnxunZ9NrD1JXKK-0" edge="1">
          <mxGeometry relative="1" as="geometry">
            <Array as="points">
              <mxPoint x="-480" y="590" />
              <mxPoint x="-25" y="590" />
            </Array>
          </mxGeometry>
        </mxCell>
        <mxCell id="KAskMvH-FdpNS457HAVK-10" value="&lt;div&gt;«Microservicio»&lt;b&gt;&lt;br&gt;&lt;/b&gt;&lt;/div&gt;&lt;div&gt;&lt;b&gt;Launcher&lt;/b&gt;&lt;/div&gt;" style="html=1;dropTarget=0;whiteSpace=wrap;fillColor=#fff2cc;strokeColor=#d6b656;" parent="ibalX00g9vt64yQpozJs-1" vertex="1">
          <mxGeometry x="-570" y="640" width="180" height="80" as="geometry" />
        </mxCell>
        <mxCell id="KAskMvH-FdpNS457HAVK-11" value="" style="shape=module;jettyWidth=8;jettyHeight=4;" parent="KAskMvH-FdpNS457HAVK-10" vertex="1">
          <mxGeometry x="1" width="20" height="20" relative="1" as="geometry">
            <mxPoint x="-26" y="5" as="offset" />
          </mxGeometry>
        </mxCell>
        <mxCell id="KAskMvH-FdpNS457HAVK-16" value="&lt;font style=&quot;color: rgb(0, 0, 0);&quot;&gt;&lt;b style=&quot;font-size: 12px; text-align: center;&quot;&gt;request-&lt;/b&gt;&lt;b style=&quot;font-size: 12px; text-align: center;&quot;&gt;pin-management&lt;/b&gt;&lt;b style=&quot;font-size: 12px; text-align: center;&quot;&gt;-mpt3&lt;/b&gt;&lt;b style=&quot;font-size: 12px;&quot;&gt;-stream&lt;/b&gt;&lt;/font&gt;" style="rounded=0;whiteSpace=wrap;html=1;align=left;fontSize=11;" parent="ibalX00g9vt64yQpozJs-1" vertex="1">
          <mxGeometry x="-1301" y="830" width="270" height="20" as="geometry" />
        </mxCell>
        <mxCell id="KAskMvH-FdpNS457HAVK-17" value="&lt;div style=&quot;text-align: center;&quot;&gt;&lt;span style=&quot;background-color: transparent; color: light-dark(rgb(0, 0, 0), rgb(255, 255, 255)); font-size: 12px;&quot;&gt;&lt;b&gt;(lo debe indicar el microservivcio Launcher)&lt;/b&gt;&lt;/span&gt;&lt;/div&gt;" style="rounded=0;whiteSpace=wrap;html=1;align=left;fontSize=11;" parent="ibalX00g9vt64yQpozJs-1" vertex="1">
          <mxGeometry x="-1031" y="830" width="280" height="20" as="geometry" />
        </mxCell>
      </root>
    </mxGraphModel>
  </diagram>
  <diagram id="P0uca078UgwhhpQkU-cd" name="Streams">
    <mxGraphModel dx="1699" dy="529" grid="1" gridSize="10" guides="1" tooltips="1" connect="1" arrows="1" fold="1" page="1" pageScale="1" pageWidth="827" pageHeight="1169" math="0" shadow="0">
      <root>
        <mxCell id="0" />
        <mxCell id="1" parent="0" />
        <mxCell id="4vSoQlsN3PBgfnXqHqy_-1" value="&lt;div&gt;«Microservicio»&lt;b&gt;&lt;br&gt;&lt;/b&gt;&lt;/div&gt;&lt;div&gt;&lt;b&gt;pin--management&lt;/b&gt;&lt;br&gt;&lt;/div&gt;" style="html=1;dropTarget=0;whiteSpace=wrap;fillColor=#d5e8d4;strokeColor=#82b366;" parent="1" vertex="1">
          <mxGeometry x="462" y="411" width="180" height="90" as="geometry" />
        </mxCell>
        <mxCell id="4vSoQlsN3PBgfnXqHqy_-2" value="" style="shape=module;jettyWidth=8;jettyHeight=4;" parent="4vSoQlsN3PBgfnXqHqy_-1" vertex="1">
          <mxGeometry x="1" width="20" height="20" relative="1" as="geometry">
            <mxPoint x="-27" y="7" as="offset" />
          </mxGeometry>
        </mxCell>
        <mxCell id="4vSoQlsN3PBgfnXqHqy_-3" value="&lt;div&gt;«Microservicio»&lt;b&gt;&lt;br&gt;&lt;/b&gt;&lt;/div&gt;&lt;div&gt;&lt;b&gt;Launcher&lt;/b&gt;&lt;/div&gt;" style="html=1;dropTarget=0;whiteSpace=wrap;" parent="1" vertex="1">
          <mxGeometry x="-265" y="410" width="180" height="90" as="geometry" />
        </mxCell>
        <mxCell id="4vSoQlsN3PBgfnXqHqy_-4" value="" style="shape=module;jettyWidth=8;jettyHeight=4;" parent="4vSoQlsN3PBgfnXqHqy_-3" vertex="1">
          <mxGeometry x="1" width="20" height="20" relative="1" as="geometry">
            <mxPoint x="-27" y="41" as="offset" />
          </mxGeometry>
        </mxCell>
        <mxCell id="4vSoQlsN3PBgfnXqHqy_-5" value="" style="rounded=0;whiteSpace=wrap;html=1;" parent="1" vertex="1">
          <mxGeometry x="10" y="330" width="360" height="350" as="geometry" />
        </mxCell>
        <mxCell id="4vSoQlsN3PBgfnXqHqy_-6" value="&lt;b&gt;request-&lt;/b&gt;&lt;b&gt;pin-management&lt;/b&gt;&lt;b&gt;-mpt3&lt;/b&gt;&lt;b style=&quot;text-align: left;&quot;&gt;-stream&lt;/b&gt;" style="shape=cylinder3;whiteSpace=wrap;html=1;boundedLbl=1;backgroundOutline=1;size=15;rotation=0;direction=south;fillColor=#e1d5e7;strokeColor=#9673a6;" parent="1" vertex="1">
          <mxGeometry x="35" y="411" width="310" height="30" as="geometry" />
        </mxCell>
        <mxCell id="BM0YD6f-yyeIX_410Jj9-1" value="&lt;div&gt;«Event component»&lt;b&gt;&lt;br&gt;&lt;/b&gt;&lt;/div&gt;&lt;div&gt;&lt;b&gt;Redis Streams&lt;/b&gt;&lt;/div&gt;" style="text;html=1;align=center;verticalAlign=middle;whiteSpace=wrap;rounded=0;" parent="1" vertex="1">
          <mxGeometry x="120" y="340" width="120" height="30" as="geometry" />
        </mxCell>
        <mxCell id="BM0YD6f-yyeIX_410Jj9-2" value="" style="endArrow=classic;html=1;rounded=0;entryX=0.5;entryY=1;entryDx=0;entryDy=0;entryPerimeter=0;exitX=1;exitY=0.25;exitDx=0;exitDy=0;" parent="1" source="4vSoQlsN3PBgfnXqHqy_-3" target="4vSoQlsN3PBgfnXqHqy_-6" edge="1">
          <mxGeometry width="50" height="50" relative="1" as="geometry">
            <mxPoint x="-40" y="435.5" as="sourcePoint" />
            <mxPoint x="60" y="384" as="targetPoint" />
          </mxGeometry>
        </mxCell>
        <mxCell id="BM0YD6f-yyeIX_410Jj9-3" value="" style="endArrow=classic;html=1;rounded=0;entryX=0;entryY=0.25;entryDx=0;entryDy=0;exitX=0.5;exitY=0;exitDx=0;exitDy=0;exitPerimeter=0;" parent="1" source="4vSoQlsN3PBgfnXqHqy_-6" target="4vSoQlsN3PBgfnXqHqy_-1" edge="1">
          <mxGeometry width="50" height="50" relative="1" as="geometry">
            <mxPoint x="260" y="384" as="sourcePoint" />
            <mxPoint x="260" y="454" as="targetPoint" />
          </mxGeometry>
        </mxCell>
        <mxCell id="la-rwBMp85gm7iY0CXA6-1" value="" style="endArrow=classic;html=1;rounded=0;exitX=0.5;exitY=1;exitDx=0;exitDy=0;exitPerimeter=0;entryX=1;entryY=0.75;entryDx=0;entryDy=0;" parent="1" source="wTTz-yUmNMkJHmIfPpqJ-2" target="4vSoQlsN3PBgfnXqHqy_-3" edge="1">
          <mxGeometry width="50" height="50" relative="1" as="geometry">
            <mxPoint x="30" y="585" as="sourcePoint" />
            <mxPoint x="-85" y="518" as="targetPoint" />
          </mxGeometry>
        </mxCell>
        <mxCell id="wTTz-yUmNMkJHmIfPpqJ-2" value="&lt;div style=&quot;text-align: center;&quot;&gt;&lt;b&gt;A definir por el Launcher&lt;/b&gt;&lt;/div&gt;" style="shape=cylinder3;whiteSpace=wrap;html=1;boundedLbl=1;backgroundOutline=1;size=15;direction=south;fillColor=#f8cecc;strokeColor=#b85450;" parent="1" vertex="1">
          <mxGeometry x="35" y="470" width="310" height="30" as="geometry" />
        </mxCell>
        <mxCell id="wTTz-yUmNMkJHmIfPpqJ-3" value="" style="endArrow=classic;html=1;rounded=0;exitX=0;exitY=0.75;exitDx=0;exitDy=0;entryX=0.5;entryY=0;entryDx=0;entryDy=0;entryPerimeter=0;" parent="1" target="wTTz-yUmNMkJHmIfPpqJ-2" edge="1" source="4vSoQlsN3PBgfnXqHqy_-1">
          <mxGeometry width="50" height="50" relative="1" as="geometry">
            <mxPoint x="474" y="501" as="sourcePoint" />
            <mxPoint x="350" y="595" as="targetPoint" />
          </mxGeometry>
        </mxCell>
      </root>
    </mxGraphModel>
  </diagram>
  <diagram name="Clases pin-management" id="H1mp5dD5IItkxUQxP-CH">
    <mxGraphModel dx="1378" dy="1982" grid="1" gridSize="10" guides="1" tooltips="1" connect="1" arrows="1" fold="1" page="1" pageScale="1" pageWidth="850" pageHeight="1100" math="0" shadow="0">
      <root>
        <mxCell id="uwC5ymK-V9znXdQjigwV-0" />
        <mxCell id="uwC5ymK-V9znXdQjigwV-1" parent="uwC5ymK-V9znXdQjigwV-0" />
        <mxCell id="uwC5ymK-V9znXdQjigwV-2" value="com.mx.santander.plard.acl.microservice" style="shape=folder;fontStyle=1;spacingTop=10;tabWidth=40;tabHeight=14;tabPosition=left;html=1;whiteSpace=wrap;align=left;verticalAlign=top;" parent="uwC5ymK-V9znXdQjigwV-1" vertex="1">
          <mxGeometry x="330" y="-10" width="1720" height="1910" as="geometry" />
        </mxCell>
        <mxCell id="uwC5ymK-V9znXdQjigwV-3" value="infraestructure" style="shape=folder;fontStyle=1;spacingTop=10;tabWidth=40;tabHeight=14;tabPosition=left;html=1;whiteSpace=wrap;align=left;verticalAlign=top;" parent="uwC5ymK-V9znXdQjigwV-1" vertex="1">
          <mxGeometry x="580" y="1069.5" width="1440" height="802.5" as="geometry" />
        </mxCell>
        <mxCell id="uwC5ymK-V9znXdQjigwV-4" value="domain" style="shape=folder;fontStyle=1;spacingTop=10;tabWidth=40;tabHeight=14;tabPosition=left;html=1;whiteSpace=wrap;align=left;verticalAlign=top;" parent="uwC5ymK-V9znXdQjigwV-1" vertex="1">
          <mxGeometry x="1300" y="650" width="730" height="390" as="geometry" />
        </mxCell>
        <mxCell id="uwC5ymK-V9znXdQjigwV-5" value="Outbound" style="shape=folder;fontStyle=1;spacingTop=10;tabWidth=40;tabHeight=14;tabPosition=left;html=1;whiteSpace=wrap;align=left;verticalAlign=top;" parent="uwC5ymK-V9znXdQjigwV-1" vertex="1">
          <mxGeometry x="1320" y="820" width="700" height="200" as="geometry" />
        </mxCell>
        <mxCell id="uwC5ymK-V9znXdQjigwV-6" value="application" style="shape=folder;fontStyle=1;spacingTop=10;tabWidth=40;tabHeight=14;tabPosition=left;html=1;whiteSpace=wrap;align=left;verticalAlign=top;" parent="uwC5ymK-V9znXdQjigwV-1" vertex="1">
          <mxGeometry x="350" y="720" width="910" height="320" as="geometry" />
        </mxCell>
        <mxCell id="uwC5ymK-V9znXdQjigwV-7" value="Service" style="shape=folder;fontStyle=1;spacingTop=10;tabWidth=40;tabHeight=14;tabPosition=left;html=1;whiteSpace=wrap;align=left;verticalAlign=top;" parent="uwC5ymK-V9znXdQjigwV-1" vertex="1">
          <mxGeometry x="650" y="780" width="590" height="190" as="geometry" />
        </mxCell>
        <mxCell id="uwC5ymK-V9znXdQjigwV-8" value="model" style="shape=folder;fontStyle=1;spacingTop=10;tabWidth=40;tabHeight=14;tabPosition=left;html=1;whiteSpace=wrap;align=left;verticalAlign=top;" parent="uwC5ymK-V9znXdQjigwV-1" vertex="1">
          <mxGeometry x="635" y="1664.5" width="1360" height="189.5" as="geometry" />
        </mxCell>
        <mxCell id="uwC5ymK-V9znXdQjigwV-9" value="transform" style="shape=folder;fontStyle=1;spacingTop=10;tabWidth=40;tabHeight=14;tabPosition=left;html=1;whiteSpace=wrap;align=left;verticalAlign=top;" parent="uwC5ymK-V9znXdQjigwV-1" vertex="1">
          <mxGeometry x="635" y="1292" width="1360" height="370" as="geometry" />
        </mxCell>
        <mxCell id="uwC5ymK-V9znXdQjigwV-11" value="interface" style="shape=folder;fontStyle=1;spacingTop=10;tabWidth=40;tabHeight=14;tabPosition=left;html=1;whiteSpace=wrap;align=left;verticalAlign=top;" parent="uwC5ymK-V9znXdQjigwV-1" vertex="1">
          <mxGeometry x="350" y="30" width="910" height="670" as="geometry" />
        </mxCell>
        <mxCell id="uwC5ymK-V9znXdQjigwV-12" value="model" style="shape=folder;fontStyle=1;spacingTop=10;tabWidth=40;tabHeight=14;tabPosition=left;html=1;whiteSpace=wrap;align=left;verticalAlign=top;" parent="uwC5ymK-V9znXdQjigwV-1" vertex="1">
          <mxGeometry x="598" y="60" width="480" height="116" as="geometry" />
        </mxCell>
        <mxCell id="uwC5ymK-V9znXdQjigwV-13" value="transform" style="shape=folder;fontStyle=1;spacingTop=10;tabWidth=40;tabHeight=14;tabPosition=left;html=1;whiteSpace=wrap;align=left;verticalAlign=top;" parent="uwC5ymK-V9znXdQjigwV-1" vertex="1">
          <mxGeometry x="598" y="196" width="480" height="200" as="geometry" />
        </mxCell>
        <mxCell id="uwC5ymK-V9znXdQjigwV-14" value="events" style="shape=folder;fontStyle=1;spacingTop=10;tabWidth=40;tabHeight=14;tabPosition=left;html=1;whiteSpace=wrap;align=left;verticalAlign=top;" parent="uwC5ymK-V9znXdQjigwV-1" vertex="1">
          <mxGeometry x="360" y="430" width="889" height="240" as="geometry" />
        </mxCell>
        <mxCell id="uwC5ymK-V9znXdQjigwV-15" value="Model" style="shape=folder;fontStyle=1;spacingTop=10;tabWidth=40;tabHeight=14;tabPosition=left;html=1;whiteSpace=wrap;align=left;verticalAlign=top;" parent="uwC5ymK-V9znXdQjigwV-1" vertex="1">
          <mxGeometry x="1320" y="687.5" width="210" height="118.5" as="geometry" />
        </mxCell>
        <mxCell id="uwC5ymK-V9znXdQjigwV-16" value="PinDataModelDto" style="swimlane;fontStyle=1;align=center;verticalAlign=middle;childLayout=stackLayout;horizontal=1;startSize=29;horizontalStack=0;resizeParent=1;resizeParentMax=0;resizeLast=0;collapsible=0;marginBottom=0;html=1;whiteSpace=wrap;fillColor=#f5f5f5;strokeColor=#666666;fontColor=#333333;" parent="uwC5ymK-V9znXdQjigwV-1" vertex="1">
          <mxGeometry x="798" y="91" width="180" height="54" as="geometry" />
        </mxCell>
        <mxCell id="uwC5ymK-V9znXdQjigwV-17" value="&amp;lt;&amp;lt;Java Bean&amp;gt;&amp;gt;" style="text;html=1;align=center;verticalAlign=middle;spacingLeft=4;spacingRight=4;overflow=hidden;rotatable=0;points=[[0,0.5],[1,0.5]];portConstraint=eastwest;whiteSpace=wrap;" parent="uwC5ymK-V9znXdQjigwV-16" vertex="1">
          <mxGeometry y="29" width="180" height="25" as="geometry" />
        </mxCell>
        <mxCell id="uwC5ymK-V9znXdQjigwV-18" value="PinDataModelDto" style="swimlane;fontStyle=1;align=center;verticalAlign=middle;childLayout=stackLayout;horizontal=1;startSize=29;horizontalStack=0;resizeParent=1;resizeParentMax=0;resizeLast=0;collapsible=0;marginBottom=0;html=1;whiteSpace=wrap;" parent="uwC5ymK-V9znXdQjigwV-1" vertex="1">
          <mxGeometry x="1340" y="736" width="150" height="54" as="geometry" />
        </mxCell>
        <mxCell id="uwC5ymK-V9znXdQjigwV-19" value="&amp;lt;&amp;lt;Java Bean&amp;gt;&amp;gt;" style="text;html=1;align=center;verticalAlign=middle;spacingLeft=4;spacingRight=4;overflow=hidden;rotatable=0;points=[[0,0.5],[1,0.5]];portConstraint=eastwest;whiteSpace=wrap;" parent="uwC5ymK-V9znXdQjigwV-18" vertex="1">
          <mxGeometry y="29" width="150" height="25" as="geometry" />
        </mxCell>
        <mxCell id="uwC5ymK-V9znXdQjigwV-23" value="&amp;lt;&amp;lt;Component&amp;gt;&amp;gt;&lt;br&gt;&lt;b&gt;MessageTranslatorIn&lt;/b&gt;" style="swimlane;fontStyle=0;align=center;verticalAlign=top;childLayout=stackLayout;horizontal=1;startSize=55;horizontalStack=0;resizeParent=1;resizeParentMax=0;resizeLast=0;collapsible=0;marginBottom=0;html=1;whiteSpace=wrap;fillColor=#f5f5f5;fontColor=#333333;strokeColor=#666666;" parent="uwC5ymK-V9znXdQjigwV-1" vertex="1">
          <mxGeometry x="713" y="231" width="350" height="110" as="geometry" />
        </mxCell>
        <mxCell id="uwC5ymK-V9znXdQjigwV-24" value="" style="line;strokeWidth=1;align=left;verticalAlign=middle;spacingTop=-1;spacingLeft=3;spacingRight=3;rotatable=0;labelPosition=right;points=[];portConstraint=eastwest;" parent="uwC5ymK-V9znXdQjigwV-23" vertex="1">
          <mxGeometry y="55" width="350" height="8" as="geometry" />
        </mxCell>
        <mxCell id="uwC5ymK-V9znXdQjigwV-25" value="operations" style="text;html=1;align=center;verticalAlign=middle;spacingLeft=4;spacingRight=4;overflow=hidden;rotatable=0;points=[[0,0.5],[1,0.5]];portConstraint=eastwest;whiteSpace=wrap;" parent="uwC5ymK-V9znXdQjigwV-23" vertex="1">
          <mxGeometry y="63" width="350" height="20" as="geometry" />
        </mxCell>
        <mxCell id="uwC5ymK-V9znXdQjigwV-26" value="&lt;div&gt;&lt;b&gt;&lt;font style=&quot;color: rgb(0, 0, 204);&quot;&gt;requestMpt3ToPinData(String): PinDataModelDto&lt;/font&gt;&lt;/b&gt;&lt;/div&gt;" style="text;html=1;align=left;verticalAlign=middle;spacingLeft=4;spacingRight=4;overflow=hidden;rotatable=0;points=[[0,0.5],[1,0.5]];portConstraint=eastwest;whiteSpace=wrap;" parent="uwC5ymK-V9znXdQjigwV-23" vertex="1">
          <mxGeometry y="83" width="350" height="27" as="geometry" />
        </mxCell>
        <mxCell id="uwC5ymK-V9znXdQjigwV-27" value="Use" style="endArrow=open;endSize=12;dashed=1;html=1;rounded=0;exitX=0;exitY=0;exitDx=464.5;exitDy=14;exitPerimeter=0;" parent="uwC5ymK-V9znXdQjigwV-1" source="uwC5ymK-V9znXdQjigwV-14" target="uwC5ymK-V9znXdQjigwV-23" edge="1">
          <mxGeometry width="160" relative="1" as="geometry">
            <mxPoint x="627" y="473" as="sourcePoint" />
            <mxPoint x="580.8767123287671" y="398.5" as="targetPoint" />
          </mxGeometry>
        </mxCell>
        <mxCell id="uwC5ymK-V9znXdQjigwV-28" value="Use" style="endArrow=open;endSize=12;dashed=1;html=1;rounded=0;edgeStyle=orthogonalEdgeStyle;exitX=0;exitY=0;exitDx=260;exitDy=14;exitPerimeter=0;" parent="uwC5ymK-V9znXdQjigwV-1" source="uwC5ymK-V9znXdQjigwV-7" edge="1">
          <mxGeometry width="160" relative="1" as="geometry">
            <mxPoint x="1022" y="500" as="sourcePoint" />
            <mxPoint x="700" y="670" as="targetPoint" />
            <Array as="points">
              <mxPoint x="910" y="720" />
              <mxPoint x="701" y="720" />
            </Array>
          </mxGeometry>
        </mxCell>
        <mxCell id="uwC5ymK-V9znXdQjigwV-29" value="&amp;lt;&amp;lt;Component&amp;gt;&amp;gt;&lt;br&gt;&lt;b&gt;EventMessageTranslator&lt;/b&gt;" style="swimlane;fontStyle=0;align=center;verticalAlign=top;childLayout=stackLayout;horizontal=1;startSize=55;horizontalStack=0;resizeParent=1;resizeParentMax=0;resizeLast=0;collapsible=0;marginBottom=0;html=1;whiteSpace=wrap;fillColor=#f5f5f5;fontColor=#333333;strokeColor=#666666;" parent="uwC5ymK-V9znXdQjigwV-1" vertex="1">
          <mxGeometry x="1775" y="1353" width="200" height="120" as="geometry" />
        </mxCell>
        <mxCell id="uwC5ymK-V9znXdQjigwV-30" value="" style="line;strokeWidth=1;align=left;verticalAlign=middle;spacingTop=-1;spacingLeft=3;spacingRight=3;rotatable=0;labelPosition=right;points=[];portConstraint=eastwest;" parent="uwC5ymK-V9znXdQjigwV-29" vertex="1">
          <mxGeometry y="55" width="200" height="8" as="geometry" />
        </mxCell>
        <mxCell id="uwC5ymK-V9znXdQjigwV-31" value="operations" style="text;html=1;align=center;verticalAlign=middle;spacingLeft=4;spacingRight=4;overflow=hidden;rotatable=0;points=[[0,0.5],[1,0.5]];portConstraint=eastwest;whiteSpace=wrap;" parent="uwC5ymK-V9znXdQjigwV-29" vertex="1">
          <mxGeometry y="63" width="200" height="20" as="geometry" />
        </mxCell>
        <mxCell id="uwC5ymK-V9znXdQjigwV-32" value="&lt;div&gt;auditoriaToEvent(PinDataModel): string&lt;br&gt;&lt;/div&gt;" style="text;html=1;align=left;verticalAlign=middle;spacingLeft=4;spacingRight=4;overflow=hidden;rotatable=0;points=[[0,0.5],[1,0.5]];portConstraint=eastwest;whiteSpace=wrap;" parent="uwC5ymK-V9znXdQjigwV-29" vertex="1">
          <mxGeometry y="83" width="200" height="37" as="geometry" />
        </mxCell>
        <mxCell id="uwC5ymK-V9znXdQjigwV-39" value="" style="endArrow=open;endSize=12;dashed=1;html=1;rounded=0;exitX=0.5;exitY=0;exitDx=0;exitDy=0;" parent="uwC5ymK-V9znXdQjigwV-1" source="uwC5ymK-V9znXdQjigwV-23" target="uwC5ymK-V9znXdQjigwV-16" edge="1">
          <mxGeometry width="160" relative="1" as="geometry">
            <mxPoint x="539" y="469" as="sourcePoint" />
            <mxPoint x="536" y="376" as="targetPoint" />
          </mxGeometry>
        </mxCell>
        <mxCell id="uwC5ymK-V9znXdQjigwV-40" value="AuditoriaDto" style="swimlane;fontStyle=1;align=center;verticalAlign=middle;childLayout=stackLayout;horizontal=1;startSize=29;horizontalStack=0;resizeParent=1;resizeParentMax=0;resizeLast=0;collapsible=0;marginBottom=0;html=1;whiteSpace=wrap;fillColor=#f5f5f5;fontColor=#333333;strokeColor=#666666;" parent="uwC5ymK-V9znXdQjigwV-1" vertex="1">
          <mxGeometry x="1790" y="1704.5" width="170" height="54" as="geometry" />
        </mxCell>
        <mxCell id="uwC5ymK-V9znXdQjigwV-41" value="&amp;lt;&amp;lt;Java Bean&amp;gt;&amp;gt;" style="text;html=1;align=center;verticalAlign=middle;spacingLeft=4;spacingRight=4;overflow=hidden;rotatable=0;points=[[0,0.5],[1,0.5]];portConstraint=eastwest;whiteSpace=wrap;" parent="uwC5ymK-V9znXdQjigwV-40" vertex="1">
          <mxGeometry y="29" width="170" height="25" as="geometry" />
        </mxCell>
        <mxCell id="uwC5ymK-V9znXdQjigwV-42" value="" style="endArrow=open;endSize=12;dashed=1;html=1;rounded=0;" parent="uwC5ymK-V9znXdQjigwV-1" source="uwC5ymK-V9znXdQjigwV-29" target="uwC5ymK-V9znXdQjigwV-40" edge="1">
          <mxGeometry width="160" relative="1" as="geometry">
            <mxPoint x="1590" y="1670.5" as="sourcePoint" />
            <mxPoint x="1606" y="1584.5" as="targetPoint" />
          </mxGeometry>
        </mxCell>
        <mxCell id="uwC5ymK-V9znXdQjigwV-43" style="edgeStyle=orthogonalEdgeStyle;rounded=0;orthogonalLoop=1;jettySize=auto;html=1;entryX=0;entryY=0.5;entryDx=0;entryDy=0;dashed=1;endArrow=block;endFill=0;" parent="uwC5ymK-V9znXdQjigwV-1" source="uwC5ymK-V9znXdQjigwV-44" target="uwC5ymK-V9znXdQjigwV-87" edge="1">
          <mxGeometry relative="1" as="geometry" />
        </mxCell>
        <mxCell id="uwC5ymK-V9znXdQjigwV-44" value="RedisStreamSubscriberMpt3" style="swimlane;fontStyle=1;align=center;verticalAlign=middle;childLayout=stackLayout;horizontal=1;startSize=29;horizontalStack=0;resizeParent=1;resizeParentMax=0;resizeLast=0;collapsible=0;marginBottom=0;html=1;whiteSpace=wrap;fillColor=#f5f5f5;strokeColor=#666666;fontColor=#333333;" parent="uwC5ymK-V9znXdQjigwV-1" vertex="1">
          <mxGeometry x="840" y="473" width="174" height="54" as="geometry" />
        </mxCell>
        <mxCell id="uwC5ymK-V9znXdQjigwV-45" value="&amp;lt;&amp;lt;Java Component&amp;gt;&amp;gt;" style="text;html=1;align=center;verticalAlign=middle;spacingLeft=4;spacingRight=4;overflow=hidden;rotatable=0;points=[[0,0.5],[1,0.5]];portConstraint=eastwest;whiteSpace=wrap;" parent="uwC5ymK-V9znXdQjigwV-44" vertex="1">
          <mxGeometry y="29" width="174" height="25" as="geometry" />
        </mxCell>
        <mxCell id="uwC5ymK-V9znXdQjigwV-46" value="rest" style="shape=folder;fontStyle=1;spacingTop=10;tabWidth=40;tabHeight=14;tabPosition=left;html=1;whiteSpace=wrap;align=left;verticalAlign=top;" parent="uwC5ymK-V9znXdQjigwV-1" vertex="1">
          <mxGeometry x="635" y="1101.5" width="791" height="160.5" as="geometry" />
        </mxCell>
        <mxCell id="uwC5ymK-V9znXdQjigwV-66" value="config" style="shape=folder;fontStyle=1;spacingTop=10;tabWidth=40;tabHeight=14;tabPosition=left;html=1;whiteSpace=wrap;align=left;verticalAlign=top;" parent="uwC5ymK-V9znXdQjigwV-1" vertex="1">
          <mxGeometry x="394.25" y="780" width="230" height="190" as="geometry" />
        </mxCell>
        <mxCell id="uwC5ymK-V9znXdQjigwV-69" value="FeignConfig" style="swimlane;fontStyle=1;align=center;verticalAlign=middle;childLayout=stackLayout;horizontal=1;startSize=29;horizontalStack=0;resizeParent=1;resizeParentMax=0;resizeLast=0;collapsible=0;marginBottom=0;html=1;whiteSpace=wrap;fillColor=#f5f5f5;fontColor=#333333;strokeColor=#666666;" parent="uwC5ymK-V9znXdQjigwV-1" vertex="1">
          <mxGeometry x="424.25" y="838.5" width="180" height="54" as="geometry" />
        </mxCell>
        <mxCell id="uwC5ymK-V9znXdQjigwV-70" value="&amp;lt;&amp;lt;Java Component&amp;gt;&amp;gt;" style="text;html=1;align=center;verticalAlign=middle;spacingLeft=4;spacingRight=4;overflow=hidden;rotatable=0;points=[[0,0.5],[1,0.5]];portConstraint=eastwest;whiteSpace=wrap;" parent="uwC5ymK-V9znXdQjigwV-69" vertex="1">
          <mxGeometry y="29" width="180" height="25" as="geometry" />
        </mxCell>
        <mxCell id="uwC5ymK-V9znXdQjigwV-71" value="Use" style="endArrow=open;endSize=12;dashed=1;html=1;rounded=0;exitX=0.5;exitY=1;exitDx=0;exitDy=0;exitPerimeter=0;edgeStyle=orthogonalEdgeStyle;" parent="uwC5ymK-V9znXdQjigwV-1" source="uwC5ymK-V9znXdQjigwV-7" target="uwC5ymK-V9znXdQjigwV-72" edge="1">
          <mxGeometry width="160" relative="1" as="geometry">
            <mxPoint x="990" y="947" as="sourcePoint" />
            <mxPoint x="680" y="1123" as="targetPoint" />
          </mxGeometry>
        </mxCell>
        <mxCell id="uwC5ymK-V9znXdQjigwV-72" value="1" style="ellipse;whiteSpace=wrap;html=1;aspect=fixed;" parent="uwC5ymK-V9znXdQjigwV-1" vertex="1">
          <mxGeometry x="935" y="1010" width="20" height="20" as="geometry" />
        </mxCell>
        <mxCell id="uwC5ymK-V9znXdQjigwV-81" value="1" style="ellipse;whiteSpace=wrap;html=1;aspect=fixed;" parent="uwC5ymK-V9znXdQjigwV-1" vertex="1">
          <mxGeometry x="1865" y="1273" width="20" height="20" as="geometry" />
        </mxCell>
        <mxCell id="uwC5ymK-V9znXdQjigwV-82" value="Use" style="endArrow=open;endSize=12;dashed=1;html=1;rounded=0;" parent="uwC5ymK-V9znXdQjigwV-1" source="uwC5ymK-V9znXdQjigwV-81" target="uwC5ymK-V9znXdQjigwV-29" edge="1">
          <mxGeometry width="160" relative="1" as="geometry">
            <mxPoint x="1592" y="1273" as="sourcePoint" />
            <mxPoint x="1837.9228486646884" y="1215.75" as="targetPoint" />
          </mxGeometry>
        </mxCell>
        <mxCell id="uwC5ymK-V9znXdQjigwV-87" value="&amp;lt;&amp;lt;Interface&amp;gt;&amp;gt;&lt;br&gt;&lt;b style=&quot;border-color: var(--border-color);&quot;&gt;I&lt;/b&gt;&lt;span style=&quot;font-weight: 700;&quot;&gt;RedisStreamSubscriberMpt3&lt;/span&gt;" style="swimlane;fontStyle=0;align=center;verticalAlign=top;childLayout=stackLayout;horizontal=1;startSize=55;horizontalStack=0;resizeParent=1;resizeParentMax=0;resizeLast=0;collapsible=0;marginBottom=0;html=1;whiteSpace=wrap;fillColor=#f5f5f5;fontColor=#333333;strokeColor=#666666;" parent="uwC5ymK-V9znXdQjigwV-1" vertex="1">
          <mxGeometry x="1051" y="450" width="189" height="100" as="geometry" />
        </mxCell>
        <mxCell id="uwC5ymK-V9znXdQjigwV-88" value="" style="line;strokeWidth=1;align=left;verticalAlign=middle;spacingTop=-1;spacingLeft=3;spacingRight=3;rotatable=0;labelPosition=right;points=[];portConstraint=eastwest;" parent="uwC5ymK-V9znXdQjigwV-87" vertex="1">
          <mxGeometry y="55" width="189" height="8" as="geometry" />
        </mxCell>
        <mxCell id="uwC5ymK-V9znXdQjigwV-89" value="operations" style="text;html=1;align=center;verticalAlign=middle;spacingLeft=4;spacingRight=4;overflow=hidden;rotatable=0;points=[[0,0.5],[1,0.5]];portConstraint=eastwest;whiteSpace=wrap;" parent="uwC5ymK-V9znXdQjigwV-87" vertex="1">
          <mxGeometry y="63" width="189" height="20" as="geometry" />
        </mxCell>
        <mxCell id="uwC5ymK-V9znXdQjigwV-90" value="onMessage()&lt;div&gt;&lt;div&gt;&lt;br&gt;&lt;/div&gt;&lt;/div&gt;" style="text;html=1;align=left;verticalAlign=middle;spacingLeft=4;spacingRight=4;overflow=hidden;rotatable=0;points=[[0,0.5],[1,0.5]];portConstraint=eastwest;whiteSpace=wrap;" parent="uwC5ymK-V9znXdQjigwV-87" vertex="1">
          <mxGeometry y="83" width="189" height="17" as="geometry" />
        </mxCell>
        <mxCell id="uwC5ymK-V9znXdQjigwV-91" style="edgeStyle=orthogonalEdgeStyle;rounded=0;orthogonalLoop=1;jettySize=auto;html=1;entryX=0;entryY=0.5;entryDx=0;entryDy=0;dashed=1;endArrow=block;endFill=0;dashPattern=8 8;" parent="uwC5ymK-V9znXdQjigwV-1" edge="1">
          <mxGeometry relative="1" as="geometry">
            <mxPoint x="1110" y="986" as="targetPoint" />
          </mxGeometry>
        </mxCell>
        <mxCell id="uwC5ymK-V9znXdQjigwV-116" value="&amp;lt;&amp;lt;Interface&amp;gt;&amp;gt;&lt;br&gt;&lt;b&gt;I&lt;/b&gt;&lt;span data-teams=&quot;true&quot;&gt;&lt;strong&gt;CardSecurityClient&lt;/strong&gt;&lt;/span&gt;" style="swimlane;fontStyle=0;align=center;verticalAlign=top;childLayout=stackLayout;horizontal=1;startSize=55;horizontalStack=0;resizeParent=1;resizeParentMax=0;resizeLast=0;collapsible=0;marginBottom=0;html=1;whiteSpace=wrap;fillColor=#f5f5f5;fontColor=#333333;strokeColor=#666666;" parent="uwC5ymK-V9znXdQjigwV-1" vertex="1">
          <mxGeometry x="1581" y="870" width="289" height="120" as="geometry" />
        </mxCell>
        <mxCell id="uwC5ymK-V9znXdQjigwV-117" value="" style="line;strokeWidth=1;align=left;verticalAlign=middle;spacingTop=-1;spacingLeft=3;spacingRight=3;rotatable=0;labelPosition=right;points=[];portConstraint=eastwest;" parent="uwC5ymK-V9znXdQjigwV-116" vertex="1">
          <mxGeometry y="55" width="289" height="8" as="geometry" />
        </mxCell>
        <mxCell id="uwC5ymK-V9znXdQjigwV-118" value="operations" style="text;html=1;align=center;verticalAlign=middle;spacingLeft=4;spacingRight=4;overflow=hidden;rotatable=0;points=[[0,0.5],[1,0.5]];portConstraint=eastwest;whiteSpace=wrap;" parent="uwC5ymK-V9znXdQjigwV-116" vertex="1">
          <mxGeometry y="63" width="289" height="20" as="geometry" />
        </mxCell>
        <mxCell id="uwC5ymK-V9znXdQjigwV-119" value="&lt;b&gt;&lt;font style=&quot;color: rgb(0, 0, 204);&quot;&gt;+resetPinAttempts(deviceId,numIntentos, jwks):&amp;nbsp;&lt;/font&gt;&lt;/b&gt;&lt;div&gt;&lt;b&gt;&lt;font style=&quot;color: rgb(0, 0, 204);&quot;&gt;&lt;span style=&quot;text-align: center;&quot;&gt;PinDataModelDto&lt;/span&gt;&amp;nbsp;&lt;/font&gt;&lt;/b&gt;&lt;b style=&quot;background-color: transparent; color: light-dark(rgb(0, 0, 0), rgb(255, 255, 255));&quot;&gt;&lt;font style=&quot;color: rgb(0, 0, 204);&quot;&gt;[MPT3]&lt;/font&gt;&lt;/b&gt;&lt;/div&gt;" style="text;html=1;align=left;verticalAlign=middle;spacingLeft=4;spacingRight=4;overflow=hidden;rotatable=0;points=[[0,0.5],[1,0.5]];portConstraint=eastwest;whiteSpace=wrap;" parent="uwC5ymK-V9znXdQjigwV-116" vertex="1">
          <mxGeometry y="83" width="289" height="37" as="geometry" />
        </mxCell>
        <mxCell id="uwC5ymK-V9znXdQjigwV-120" value="&lt;span style=&quot;color: rgb(51, 51, 51); font-weight: 400;&quot; data-teams=&quot;true&quot;&gt;&lt;strong&gt;CardSecurityClient&lt;/strong&gt;&lt;/span&gt;" style="swimlane;fontStyle=1;align=center;verticalAlign=middle;childLayout=stackLayout;horizontal=1;startSize=29;horizontalStack=0;resizeParent=1;resizeParentMax=0;resizeLast=0;collapsible=0;marginBottom=0;html=1;whiteSpace=wrap;fillColor=#f5f5f5;fontColor=#333333;strokeColor=#666666;" parent="uwC5ymK-V9znXdQjigwV-1" vertex="1">
          <mxGeometry x="1250" y="1130.5" width="150" height="54" as="geometry" />
        </mxCell>
        <mxCell id="uwC5ymK-V9znXdQjigwV-121" value="&amp;lt;&amp;lt;API Client&amp;gt;&amp;gt;" style="text;html=1;align=center;verticalAlign=middle;spacingLeft=4;spacingRight=4;overflow=hidden;rotatable=0;points=[[0,0.5],[1,0.5]];portConstraint=eastwest;whiteSpace=wrap;" parent="uwC5ymK-V9znXdQjigwV-120" vertex="1">
          <mxGeometry y="29" width="150" height="25" as="geometry" />
        </mxCell>
        <mxCell id="uwC5ymK-V9znXdQjigwV-122" value="" style="endArrow=block;startArrow=none;endFill=0;startFill=0;endSize=8;html=1;verticalAlign=bottom;dashed=1;labelBackgroundColor=none;rounded=0;jumpStyle=arc;jumpSize=12;" parent="uwC5ymK-V9znXdQjigwV-1" source="uwC5ymK-V9znXdQjigwV-120" target="uwC5ymK-V9znXdQjigwV-116" edge="1">
          <mxGeometry width="160" relative="1" as="geometry">
            <mxPoint x="1631" y="1288" as="sourcePoint" />
            <mxPoint x="1950" y="805" as="targetPoint" />
          </mxGeometry>
        </mxCell>
        <mxCell id="uwC5ymK-V9znXdQjigwV-123" value="&amp;lt;&amp;lt;Component&amp;gt;&amp;gt;&lt;br&gt;&lt;strong style=&quot;color: rgb(51, 51, 51);&quot;&gt;CardSecurityTranslator&lt;/strong&gt;" style="swimlane;fontStyle=0;align=center;verticalAlign=top;childLayout=stackLayout;horizontal=1;startSize=55;horizontalStack=0;resizeParent=1;resizeParentMax=0;resizeLast=0;collapsible=0;marginBottom=0;html=1;whiteSpace=wrap;fillColor=#f5f5f5;fontColor=#333333;strokeColor=#666666;" parent="uwC5ymK-V9znXdQjigwV-1" vertex="1">
          <mxGeometry x="955" y="1353" width="350" height="140" as="geometry" />
        </mxCell>
        <mxCell id="uwC5ymK-V9znXdQjigwV-124" value="" style="line;strokeWidth=1;align=left;verticalAlign=middle;spacingTop=-1;spacingLeft=3;spacingRight=3;rotatable=0;labelPosition=right;points=[];portConstraint=eastwest;" parent="uwC5ymK-V9znXdQjigwV-123" vertex="1">
          <mxGeometry y="55" width="350" height="8" as="geometry" />
        </mxCell>
        <mxCell id="uwC5ymK-V9znXdQjigwV-125" value="operations" style="text;html=1;align=center;verticalAlign=middle;spacingLeft=4;spacingRight=4;overflow=hidden;rotatable=0;points=[[0,0.5],[1,0.5]];portConstraint=eastwest;whiteSpace=wrap;" parent="uwC5ymK-V9znXdQjigwV-123" vertex="1">
          <mxGeometry y="63" width="350" height="20" as="geometry" />
        </mxCell>
        <mxCell id="uwC5ymK-V9znXdQjigwV-126" value="&lt;font style=&quot;color: rgb(0, 0, 204);&quot;&gt;&lt;b&gt;+getResetPinAttemptsJweRequest(numIntentos, jwks):&amp;nbsp;&lt;/b&gt;&lt;/font&gt;&lt;div&gt;&lt;span style=&quot;text-align: center;&quot;&gt;&lt;font style=&quot;color: rgb(0, 0, 204);&quot;&gt;&lt;b style=&quot;color: light-dark(rgb(0, 0, 204), rgb(0, 0, 204));&quot;&gt;jweString&lt;/b&gt;&lt;br&gt;&lt;div style=&quot;text-align: left;&quot;&gt;&lt;span style=&quot;color: light-dark(rgb(0, 0, 0), rgb(255, 255, 255)); font-weight: normal; background-color: transparent;&quot;&gt;&lt;font style=&quot;color: rgb(0, 0, 204);&quot;&gt;&lt;b&gt;+g&lt;/b&gt;&lt;/font&gt;&lt;/span&gt;&lt;span style=&quot;color: light-dark(rgb(0, 0, 0), rgb(255, 255, 255)); font-weight: normal; background-color: transparent; text-align: left;&quot;&gt;&lt;font color=&quot;#0000cc&quot;&gt;&lt;b&gt;etResetPinAttemptsJweResponse(&lt;/b&gt;&lt;/font&gt;&lt;/span&gt;&lt;span style=&quot;background-color: transparent;&quot;&gt;&lt;font color=&quot;#0000cc&quot;&gt;&lt;b&gt;jwe):&lt;/b&gt;&lt;/font&gt;&lt;/span&gt;&lt;b style=&quot;color: light-dark(rgb(0, 0, 204), rgb(0, 0, 204)); background-color: transparent; text-align: center;&quot;&gt;PinDataModelDto&lt;/b&gt;&lt;b style=&quot;background-color: transparent; color: rgb(0, 0, 204);&quot;&gt;&amp;nbsp;&lt;/b&gt;&lt;/div&gt;&lt;div style=&quot;text-align: left;&quot;&gt;&lt;br&gt;&lt;/div&gt;&lt;/font&gt;&lt;/span&gt;&lt;/div&gt;" style="text;html=1;align=left;verticalAlign=middle;spacingLeft=4;spacingRight=4;overflow=hidden;rotatable=0;points=[[0,0.5],[1,0.5]];portConstraint=eastwest;whiteSpace=wrap;" parent="uwC5ymK-V9znXdQjigwV-123" vertex="1">
          <mxGeometry y="83" width="350" height="57" as="geometry" />
        </mxCell>
        <mxCell id="uwC5ymK-V9znXdQjigwV-130" value="Use" style="endArrow=open;endSize=12;dashed=1;html=1;rounded=0;" parent="uwC5ymK-V9znXdQjigwV-1" source="uwC5ymK-V9znXdQjigwV-120" target="uwC5ymK-V9znXdQjigwV-123" edge="1">
          <mxGeometry x="-0.3544" y="6" width="160" relative="1" as="geometry">
            <mxPoint x="983" y="1224" as="sourcePoint" />
            <mxPoint x="820" y="1343" as="targetPoint" />
            <mxPoint y="-1" as="offset" />
          </mxGeometry>
        </mxCell>
        <mxCell id="uwC5ymK-V9znXdQjigwV-131" value="1" style="ellipse;whiteSpace=wrap;html=1;aspect=fixed;" parent="uwC5ymK-V9znXdQjigwV-1" vertex="1">
          <mxGeometry x="1318" y="1234" width="20" height="20" as="geometry" />
        </mxCell>
        <mxCell id="uwC5ymK-V9znXdQjigwV-132" value="Use" style="endArrow=open;endSize=12;dashed=1;html=1;rounded=0;exitX=0.5;exitY=0;exitDx=0;exitDy=0;" parent="uwC5ymK-V9znXdQjigwV-1" source="uwC5ymK-V9znXdQjigwV-131" target="uwC5ymK-V9znXdQjigwV-120" edge="1">
          <mxGeometry width="160" relative="1" as="geometry">
            <mxPoint x="1267" y="1254" as="sourcePoint" />
            <mxPoint x="1268" y="1195" as="targetPoint" />
          </mxGeometry>
        </mxCell>
        <mxCell id="mZZ4piZvKpgbZrroLsrH-1" value="&amp;lt;&amp;lt;Interface&amp;gt;&amp;gt;&lt;br&gt;&lt;b&gt;I&lt;/b&gt;&lt;span data-teams=&quot;true&quot;&gt;&lt;strong&gt;CadastralDomainAPIClient&lt;/strong&gt;&lt;/span&gt;" style="swimlane;fontStyle=0;align=center;verticalAlign=top;childLayout=stackLayout;horizontal=1;startSize=55;horizontalStack=0;resizeParent=1;resizeParentMax=0;resizeLast=0;collapsible=0;marginBottom=0;html=1;whiteSpace=wrap;fillColor=#f5f5f5;fontColor=#333333;strokeColor=#666666;" parent="uwC5ymK-V9znXdQjigwV-1" vertex="1">
          <mxGeometry x="1335" y="870" width="230" height="110" as="geometry" />
        </mxCell>
        <mxCell id="mZZ4piZvKpgbZrroLsrH-2" value="" style="line;strokeWidth=1;align=left;verticalAlign=middle;spacingTop=-1;spacingLeft=3;spacingRight=3;rotatable=0;labelPosition=right;points=[];portConstraint=eastwest;" parent="mZZ4piZvKpgbZrroLsrH-1" vertex="1">
          <mxGeometry y="55" width="230" height="8" as="geometry" />
        </mxCell>
        <mxCell id="mZZ4piZvKpgbZrroLsrH-3" value="operations" style="text;html=1;align=center;verticalAlign=middle;spacingLeft=4;spacingRight=4;overflow=hidden;rotatable=0;points=[[0,0.5],[1,0.5]];portConstraint=eastwest;whiteSpace=wrap;" parent="mZZ4piZvKpgbZrroLsrH-1" vertex="1">
          <mxGeometry y="63" width="230" height="20" as="geometry" />
        </mxCell>
        <mxCell id="mZZ4piZvKpgbZrroLsrH-4" value="&lt;b&gt;&lt;font style=&quot;color: rgb(0, 0, 204);&quot;&gt;+getJwks():&amp;nbsp;&lt;/font&gt;&lt;/b&gt;&lt;b style=&quot;background-color: transparent; color: light-dark(rgb(0, 0, 0), rgb(255, 255, 255));&quot;&gt;&lt;font style=&quot;color: rgb(0, 0, 204);&quot;&gt;&lt;span style=&quot;text-align: center;&quot;&gt;PinDataModelDto&lt;/span&gt;&lt;/font&gt;&lt;/b&gt;" style="text;html=1;align=left;verticalAlign=middle;spacingLeft=4;spacingRight=4;overflow=hidden;rotatable=0;points=[[0,0.5],[1,0.5]];portConstraint=eastwest;whiteSpace=wrap;" parent="mZZ4piZvKpgbZrroLsrH-1" vertex="1">
          <mxGeometry y="83" width="230" height="27" as="geometry" />
        </mxCell>
        <mxCell id="mZZ4piZvKpgbZrroLsrH-7" value="&lt;span style=&quot;font-weight: 400;&quot; data-teams=&quot;true&quot;&gt;&lt;strong&gt;CadastralDomainAPIClient&lt;/strong&gt;&lt;/span&gt;" style="swimlane;fontStyle=1;align=center;verticalAlign=middle;childLayout=stackLayout;horizontal=1;startSize=29;horizontalStack=0;resizeParent=1;resizeParentMax=0;resizeLast=0;collapsible=0;marginBottom=0;html=1;whiteSpace=wrap;fillColor=#f5f5f5;fontColor=#333333;strokeColor=#666666;" parent="uwC5ymK-V9znXdQjigwV-1" vertex="1">
          <mxGeometry x="975" y="1132.75" width="160" height="54" as="geometry" />
        </mxCell>
        <mxCell id="mZZ4piZvKpgbZrroLsrH-8" value="&amp;lt;&amp;lt;API Client&amp;gt;&amp;gt;" style="text;html=1;align=center;verticalAlign=middle;spacingLeft=4;spacingRight=4;overflow=hidden;rotatable=0;points=[[0,0.5],[1,0.5]];portConstraint=eastwest;whiteSpace=wrap;" parent="mZZ4piZvKpgbZrroLsrH-7" vertex="1">
          <mxGeometry y="29" width="160" height="25" as="geometry" />
        </mxCell>
        <mxCell id="mZZ4piZvKpgbZrroLsrH-9" value="1" style="ellipse;whiteSpace=wrap;html=1;aspect=fixed;" parent="uwC5ymK-V9znXdQjigwV-1" vertex="1">
          <mxGeometry x="1044" y="1234" width="20" height="20" as="geometry" />
        </mxCell>
        <mxCell id="mZZ4piZvKpgbZrroLsrH-10" value="Use" style="endArrow=open;endSize=12;dashed=1;html=1;rounded=0;exitX=0.5;exitY=0;exitDx=0;exitDy=0;" parent="uwC5ymK-V9znXdQjigwV-1" source="mZZ4piZvKpgbZrroLsrH-9" target="mZZ4piZvKpgbZrroLsrH-7" edge="1">
          <mxGeometry width="160" relative="1" as="geometry">
            <mxPoint x="1338" y="1244" as="sourcePoint" />
            <mxPoint x="1336" y="1195" as="targetPoint" />
          </mxGeometry>
        </mxCell>
        <mxCell id="mZZ4piZvKpgbZrroLsrH-11" value="&amp;lt;&amp;lt;Component&amp;gt;&amp;gt;&lt;br&gt;&lt;strong style=&quot;color: rgb(51, 51, 51);&quot;&gt;&lt;strong&gt;CadastralDomainAPI&lt;/strong&gt;Translator&lt;/strong&gt;" style="swimlane;fontStyle=0;align=center;verticalAlign=top;childLayout=stackLayout;horizontal=1;startSize=55;horizontalStack=0;resizeParent=1;resizeParentMax=0;resizeLast=0;collapsible=0;marginBottom=0;html=1;whiteSpace=wrap;fillColor=#f5f5f5;fontColor=#333333;strokeColor=#666666;" parent="uwC5ymK-V9znXdQjigwV-1" vertex="1">
          <mxGeometry x="655" y="1353" width="290" height="120" as="geometry" />
        </mxCell>
        <mxCell id="mZZ4piZvKpgbZrroLsrH-12" value="" style="line;strokeWidth=1;align=left;verticalAlign=middle;spacingTop=-1;spacingLeft=3;spacingRight=3;rotatable=0;labelPosition=right;points=[];portConstraint=eastwest;" parent="mZZ4piZvKpgbZrroLsrH-11" vertex="1">
          <mxGeometry y="55" width="290" height="8" as="geometry" />
        </mxCell>
        <mxCell id="mZZ4piZvKpgbZrroLsrH-13" value="operations" style="text;html=1;align=center;verticalAlign=middle;spacingLeft=4;spacingRight=4;overflow=hidden;rotatable=0;points=[[0,0.5],[1,0.5]];portConstraint=eastwest;whiteSpace=wrap;" parent="mZZ4piZvKpgbZrroLsrH-11" vertex="1">
          <mxGeometry y="63" width="290" height="20" as="geometry" />
        </mxCell>
        <mxCell id="mZZ4piZvKpgbZrroLsrH-14" value="&lt;font style=&quot;color: rgb(0, 0, 204);&quot;&gt;&lt;b&gt;+jwksResponse(JwksKeySetDto response):&amp;nbsp;&lt;/b&gt;&lt;/font&gt;&lt;div&gt;&lt;span style=&quot;text-align: center;&quot;&gt;&lt;font style=&quot;color: rgb(0, 0, 204);&quot;&gt;&lt;b&gt;PinDataModelDto&lt;/b&gt;&lt;/font&gt;&lt;/span&gt;&lt;/div&gt;" style="text;html=1;align=left;verticalAlign=middle;spacingLeft=4;spacingRight=4;overflow=hidden;rotatable=0;points=[[0,0.5],[1,0.5]];portConstraint=eastwest;whiteSpace=wrap;" parent="mZZ4piZvKpgbZrroLsrH-11" vertex="1">
          <mxGeometry y="83" width="290" height="37" as="geometry" />
        </mxCell>
        <mxCell id="mZZ4piZvKpgbZrroLsrH-16" value="" style="endArrow=block;startArrow=none;endFill=0;startFill=0;endSize=8;html=1;verticalAlign=bottom;dashed=1;labelBackgroundColor=none;rounded=0;jumpStyle=arc;jumpSize=12;" parent="uwC5ymK-V9znXdQjigwV-1" source="mZZ4piZvKpgbZrroLsrH-7" target="mZZ4piZvKpgbZrroLsrH-1" edge="1">
          <mxGeometry width="160" relative="1" as="geometry">
            <mxPoint x="1682" y="1286" as="sourcePoint" />
            <mxPoint x="1701" y="1065" as="targetPoint" />
          </mxGeometry>
        </mxCell>
        <mxCell id="mZZ4piZvKpgbZrroLsrH-17" value="Use" style="endArrow=open;endSize=12;dashed=1;html=1;rounded=0;" parent="uwC5ymK-V9znXdQjigwV-1" source="mZZ4piZvKpgbZrroLsrH-7" target="mZZ4piZvKpgbZrroLsrH-11" edge="1">
          <mxGeometry x="-0.5002" y="5" width="160" relative="1" as="geometry">
            <mxPoint x="1314" y="1224" as="sourcePoint" />
            <mxPoint x="1217" y="1351" as="targetPoint" />
            <mxPoint as="offset" />
          </mxGeometry>
        </mxCell>
        <mxCell id="mZZ4piZvKpgbZrroLsrH-18" value="&lt;div style=&quot;text-align: center;&quot;&gt;&lt;font color=&quot;#000000&quot;&gt;JwksKeySet&lt;/font&gt;&lt;/div&gt;" style="swimlane;fontStyle=1;align=center;verticalAlign=middle;childLayout=stackLayout;horizontal=1;startSize=29;horizontalStack=0;resizeParent=1;resizeParentMax=0;resizeLast=0;collapsible=0;marginBottom=0;html=1;whiteSpace=wrap;fillColor=#f5f5f5;fontColor=#333333;strokeColor=#666666;" parent="uwC5ymK-V9znXdQjigwV-1" vertex="1">
          <mxGeometry x="735" y="1705.5" width="130" height="53" as="geometry" />
        </mxCell>
        <mxCell id="mZZ4piZvKpgbZrroLsrH-19" value="&amp;lt;&amp;lt;Java Bean&amp;gt;&amp;gt;" style="text;html=1;align=center;verticalAlign=middle;spacingLeft=4;spacingRight=4;overflow=hidden;rotatable=0;points=[[0,0.5],[1,0.5]];portConstraint=eastwest;whiteSpace=wrap;" parent="mZZ4piZvKpgbZrroLsrH-18" vertex="1">
          <mxGeometry y="29" width="130" height="24" as="geometry" />
        </mxCell>
        <mxCell id="mZZ4piZvKpgbZrroLsrH-20" value="" style="endArrow=open;endSize=12;dashed=1;html=1;rounded=0;" parent="uwC5ymK-V9znXdQjigwV-1" source="mZZ4piZvKpgbZrroLsrH-11" target="mZZ4piZvKpgbZrroLsrH-18" edge="1">
          <mxGeometry width="160" relative="1" as="geometry">
            <mxPoint x="1160" y="1532.5" as="sourcePoint" />
            <mxPoint x="1161" y="1632.5" as="targetPoint" />
          </mxGeometry>
        </mxCell>
        <mxCell id="-czBZxa68sxDO4tBBu1C-0" value="1" style="ellipse;whiteSpace=wrap;html=1;aspect=fixed;" parent="uwC5ymK-V9znXdQjigwV-1" vertex="1">
          <mxGeometry x="1645" y="1273" width="20" height="20" as="geometry" />
        </mxCell>
        <mxCell id="-czBZxa68sxDO4tBBu1C-1" value="Use" style="endArrow=open;endSize=12;dashed=1;html=1;rounded=0;" parent="uwC5ymK-V9znXdQjigwV-1" source="-czBZxa68sxDO4tBBu1C-0" target="-czBZxa68sxDO4tBBu1C-2" edge="1">
          <mxGeometry width="160" relative="1" as="geometry">
            <mxPoint x="1461" y="1254" as="sourcePoint" />
            <mxPoint x="1461" y="1206" as="targetPoint" />
          </mxGeometry>
        </mxCell>
        <mxCell id="-czBZxa68sxDO4tBBu1C-2" value="&amp;lt;&amp;lt;Component&amp;gt;&amp;gt;&lt;br&gt;&lt;b&gt;MessageTranslatorOut&lt;/b&gt;" style="swimlane;fontStyle=0;align=center;verticalAlign=top;childLayout=stackLayout;horizontal=1;startSize=55;horizontalStack=0;resizeParent=1;resizeParentMax=0;resizeLast=0;collapsible=0;marginBottom=0;html=1;whiteSpace=wrap;fillColor=#f5f5f5;fontColor=#333333;strokeColor=#666666;" parent="uwC5ymK-V9znXdQjigwV-1" vertex="1">
          <mxGeometry x="1515" y="1353" width="250" height="120" as="geometry" />
        </mxCell>
        <mxCell id="-czBZxa68sxDO4tBBu1C-3" value="" style="line;strokeWidth=1;align=left;verticalAlign=middle;spacingTop=-1;spacingLeft=3;spacingRight=3;rotatable=0;labelPosition=right;points=[];portConstraint=eastwest;" parent="-czBZxa68sxDO4tBBu1C-2" vertex="1">
          <mxGeometry y="55" width="250" height="8" as="geometry" />
        </mxCell>
        <mxCell id="-czBZxa68sxDO4tBBu1C-4" value="operations" style="text;html=1;align=center;verticalAlign=middle;spacingLeft=4;spacingRight=4;overflow=hidden;rotatable=0;points=[[0,0.5],[1,0.5]];portConstraint=eastwest;whiteSpace=wrap;" parent="-czBZxa68sxDO4tBBu1C-2" vertex="1">
          <mxGeometry y="63" width="250" height="20" as="geometry" />
        </mxCell>
        <mxCell id="-czBZxa68sxDO4tBBu1C-5" value="&lt;div&gt;&lt;b style=&quot;background-color: initial; color: light-dark(rgb(0, 0, 0), rgb(255, 255, 255));&quot;&gt;&lt;font style=&quot;color: rgb(0, 0, 204);&quot;&gt;+sendRespMessageMpt3(PinDataModel): String [formato PS7]&lt;/font&gt;&lt;/b&gt;&lt;/div&gt;" style="text;html=1;align=left;verticalAlign=middle;spacingLeft=4;spacingRight=4;overflow=hidden;rotatable=0;points=[[0,0.5],[1,0.5]];portConstraint=eastwest;whiteSpace=wrap;" parent="-czBZxa68sxDO4tBBu1C-2" vertex="1">
          <mxGeometry y="83" width="250" height="37" as="geometry" />
        </mxCell>
        <mxCell id="QJ2t5lPRsB6mdiyIBp9y-0" value="&lt;b style=&quot;border-color: var(--border-color);&quot;&gt;ResetPinAttemptsUseCaseService&lt;/b&gt;" style="swimlane;fontStyle=1;align=center;verticalAlign=middle;childLayout=stackLayout;horizontal=1;startSize=29;horizontalStack=0;resizeParent=1;resizeParentMax=0;resizeLast=0;collapsible=0;marginBottom=0;html=1;whiteSpace=wrap;fillColor=#f5f5f5;fontColor=#333333;strokeColor=#666666;" parent="uwC5ymK-V9znXdQjigwV-1" vertex="1">
          <mxGeometry x="677" y="857" width="233" height="54" as="geometry" />
        </mxCell>
        <mxCell id="QJ2t5lPRsB6mdiyIBp9y-1" value="&amp;lt;&amp;lt;Java Component&amp;gt;&amp;gt;" style="text;html=1;align=center;verticalAlign=middle;spacingLeft=4;spacingRight=4;overflow=hidden;rotatable=0;points=[[0,0.5],[1,0.5]];portConstraint=eastwest;whiteSpace=wrap;" parent="QJ2t5lPRsB6mdiyIBp9y-0" vertex="1">
          <mxGeometry y="29" width="233" height="25" as="geometry" />
        </mxCell>
        <mxCell id="QJ2t5lPRsB6mdiyIBp9y-2" value="&amp;lt;&amp;lt;Interface&amp;gt;&amp;gt;&lt;br&gt;&lt;b style=&quot;border-color: var(--border-color);&quot;&gt;&lt;b style=&quot;border-color: var(--border-color);&quot;&gt;I&lt;/b&gt;&lt;b style=&quot;border-color: var(--border-color);&quot;&gt;ResetPinAttemptsUseCaseService&lt;/b&gt;&lt;br&gt;&lt;/b&gt;" style="swimlane;fontStyle=0;align=center;verticalAlign=top;childLayout=stackLayout;horizontal=1;startSize=55;horizontalStack=0;resizeParent=1;resizeParentMax=0;resizeLast=0;collapsible=0;marginBottom=0;html=1;whiteSpace=wrap;fillColor=#f5f5f5;fontColor=#333333;strokeColor=#666666;" parent="uwC5ymK-V9znXdQjigwV-1" vertex="1">
          <mxGeometry x="959" y="829" width="270" height="110" as="geometry" />
        </mxCell>
        <mxCell id="QJ2t5lPRsB6mdiyIBp9y-3" value="" style="line;strokeWidth=1;align=left;verticalAlign=middle;spacingTop=-1;spacingLeft=3;spacingRight=3;rotatable=0;labelPosition=right;points=[];portConstraint=eastwest;" parent="QJ2t5lPRsB6mdiyIBp9y-2" vertex="1">
          <mxGeometry y="55" width="270" height="8" as="geometry" />
        </mxCell>
        <mxCell id="QJ2t5lPRsB6mdiyIBp9y-4" value="operations" style="text;html=1;align=center;verticalAlign=middle;spacingLeft=4;spacingRight=4;overflow=hidden;rotatable=0;points=[[0,0.5],[1,0.5]];portConstraint=eastwest;whiteSpace=wrap;" parent="QJ2t5lPRsB6mdiyIBp9y-2" vertex="1">
          <mxGeometry y="63" width="270" height="20" as="geometry" />
        </mxCell>
        <mxCell id="QJ2t5lPRsB6mdiyIBp9y-5" value="&lt;div&gt;&lt;b&gt;&lt;font style=&quot;color: rgb(0, 0, 204);&quot;&gt;+resetPinAttemptsMpt3(PinDataModelDto)&lt;/font&gt;&lt;/b&gt;&lt;/div&gt;" style="text;html=1;align=left;verticalAlign=middle;spacingLeft=4;spacingRight=4;overflow=hidden;rotatable=0;points=[[0,0.5],[1,0.5]];portConstraint=eastwest;whiteSpace=wrap;" parent="QJ2t5lPRsB6mdiyIBp9y-2" vertex="1">
          <mxGeometry y="83" width="270" height="27" as="geometry" />
        </mxCell>
        <mxCell id="QJ2t5lPRsB6mdiyIBp9y-6" value="" style="endArrow=block;startArrow=none;endFill=0;startFill=0;endSize=8;html=1;verticalAlign=bottom;dashed=1;labelBackgroundColor=none;rounded=0;" parent="uwC5ymK-V9znXdQjigwV-1" source="QJ2t5lPRsB6mdiyIBp9y-0" target="QJ2t5lPRsB6mdiyIBp9y-2" edge="1">
          <mxGeometry width="160" relative="1" as="geometry">
            <mxPoint x="907" y="754" as="sourcePoint" />
            <mxPoint x="969" y="756" as="targetPoint" />
          </mxGeometry>
        </mxCell>
        <mxCell id="gb-RiZYImgQ7Ms3fl96j-0" value="&amp;lt;&amp;lt;Interface&amp;gt;&amp;gt;&lt;br&gt;&lt;b&gt;IRedisCache&lt;/b&gt;&lt;span data-teams=&quot;true&quot;&gt;&lt;strong&gt;Client&lt;/strong&gt;&lt;/span&gt;" style="swimlane;fontStyle=0;align=center;verticalAlign=top;childLayout=stackLayout;horizontal=1;startSize=55;horizontalStack=0;resizeParent=1;resizeParentMax=0;resizeLast=0;collapsible=0;marginBottom=0;html=1;whiteSpace=wrap;fillColor=#f5f5f5;fontColor=#333333;strokeColor=#666666;" vertex="1" parent="uwC5ymK-V9znXdQjigwV-1">
          <mxGeometry x="1880" y="870" width="120" height="120" as="geometry" />
        </mxCell>
        <mxCell id="gb-RiZYImgQ7Ms3fl96j-1" value="" style="line;strokeWidth=1;align=left;verticalAlign=middle;spacingTop=-1;spacingLeft=3;spacingRight=3;rotatable=0;labelPosition=right;points=[];portConstraint=eastwest;" vertex="1" parent="gb-RiZYImgQ7Ms3fl96j-0">
          <mxGeometry y="55" width="120" height="8" as="geometry" />
        </mxCell>
        <mxCell id="gb-RiZYImgQ7Ms3fl96j-2" value="operations" style="text;html=1;align=center;verticalAlign=middle;spacingLeft=4;spacingRight=4;overflow=hidden;rotatable=0;points=[[0,0.5],[1,0.5]];portConstraint=eastwest;whiteSpace=wrap;" vertex="1" parent="gb-RiZYImgQ7Ms3fl96j-0">
          <mxGeometry y="63" width="120" height="20" as="geometry" />
        </mxCell>
        <mxCell id="gb-RiZYImgQ7Ms3fl96j-3" value="&lt;b&gt;&lt;font style=&quot;color: rgb(0, 0, 204);&quot;&gt;+getKey(key): jwks&lt;br&gt;&lt;/font&gt;&lt;/b&gt;&lt;div&gt;&lt;b&gt;&lt;font style=&quot;color: rgb(0, 0, 204);&quot;&gt;+setKey(key, jwks)&lt;/font&gt;&lt;/b&gt;&lt;/div&gt;" style="text;html=1;align=left;verticalAlign=middle;spacingLeft=4;spacingRight=4;overflow=hidden;rotatable=0;points=[[0,0.5],[1,0.5]];portConstraint=eastwest;whiteSpace=wrap;" vertex="1" parent="gb-RiZYImgQ7Ms3fl96j-0">
          <mxGeometry y="83" width="120" height="37" as="geometry" />
        </mxCell>
        <mxCell id="X-fCX3kYWMQUMlN2w1S6-2" value="rest" style="shape=folder;fontStyle=1;spacingTop=10;tabWidth=40;tabHeight=14;tabPosition=left;html=1;whiteSpace=wrap;align=left;verticalAlign=top;" vertex="1" parent="uwC5ymK-V9znXdQjigwV-1">
          <mxGeometry x="1445" y="1101.5" width="200" height="160.5" as="geometry" />
        </mxCell>
        <mxCell id="X-fCX3kYWMQUMlN2w1S6-0" value="&lt;span style=&quot;color: rgb(51, 51, 51); font-weight: 400;&quot; data-teams=&quot;true&quot;&gt;&lt;strong&gt;RedisCacheClient&lt;/strong&gt;&lt;/span&gt;" style="swimlane;fontStyle=1;align=center;verticalAlign=middle;childLayout=stackLayout;horizontal=1;startSize=29;horizontalStack=0;resizeParent=1;resizeParentMax=0;resizeLast=0;collapsible=0;marginBottom=0;html=1;whiteSpace=wrap;fillColor=#f5f5f5;fontColor=#333333;strokeColor=#666666;" vertex="1" parent="uwC5ymK-V9znXdQjigwV-1">
          <mxGeometry x="1480" y="1130.5" width="150" height="54" as="geometry" />
        </mxCell>
        <mxCell id="X-fCX3kYWMQUMlN2w1S6-1" value="&amp;lt;&amp;lt;API Client&amp;gt;&amp;gt;" style="text;html=1;align=center;verticalAlign=middle;spacingLeft=4;spacingRight=4;overflow=hidden;rotatable=0;points=[[0,0.5],[1,0.5]];portConstraint=eastwest;whiteSpace=wrap;" vertex="1" parent="X-fCX3kYWMQUMlN2w1S6-0">
          <mxGeometry y="29" width="150" height="25" as="geometry" />
        </mxCell>
        <mxCell id="X-fCX3kYWMQUMlN2w1S6-3" value="&amp;lt;&amp;lt;Component&amp;gt;&amp;gt;&lt;br&gt;&lt;b&gt;RedisTranslator&lt;/b&gt;" style="swimlane;fontStyle=0;align=center;verticalAlign=top;childLayout=stackLayout;horizontal=1;startSize=55;horizontalStack=0;resizeParent=1;resizeParentMax=0;resizeLast=0;collapsible=0;marginBottom=0;html=1;whiteSpace=wrap;fillColor=#f5f5f5;fontColor=#333333;strokeColor=#666666;" vertex="1" parent="uwC5ymK-V9znXdQjigwV-1">
          <mxGeometry x="1318" y="1353" width="180" height="120" as="geometry" />
        </mxCell>
        <mxCell id="X-fCX3kYWMQUMlN2w1S6-4" value="" style="line;strokeWidth=1;align=left;verticalAlign=middle;spacingTop=-1;spacingLeft=3;spacingRight=3;rotatable=0;labelPosition=right;points=[];portConstraint=eastwest;" vertex="1" parent="X-fCX3kYWMQUMlN2w1S6-3">
          <mxGeometry y="55" width="180" height="8" as="geometry" />
        </mxCell>
        <mxCell id="X-fCX3kYWMQUMlN2w1S6-5" value="operations" style="text;html=1;align=center;verticalAlign=middle;spacingLeft=4;spacingRight=4;overflow=hidden;rotatable=0;points=[[0,0.5],[1,0.5]];portConstraint=eastwest;whiteSpace=wrap;" vertex="1" parent="X-fCX3kYWMQUMlN2w1S6-3">
          <mxGeometry y="63" width="180" height="20" as="geometry" />
        </mxCell>
        <mxCell id="X-fCX3kYWMQUMlN2w1S6-6" value="&lt;div&gt;&lt;b&gt;&lt;font style=&quot;color: rgb(0, 0, 204);&quot;&gt;&lt;span style=&quot;background-color: initial;&quot;&gt;&lt;font style=&quot;color: rgb(0, 0, 204);&quot;&gt;+&lt;/font&gt;&lt;/span&gt;&lt;span style=&quot;background-color: rgb(255, 255, 255); font-size: 11px; text-align: center; text-wrap-mode: nowrap;&quot;&gt;RedisToJWKS(registro): jwks&lt;/span&gt;&lt;/font&gt;&lt;/b&gt;&lt;/div&gt;&lt;div&gt;&lt;b&gt;&lt;font style=&quot;color: rgb(0, 0, 204);&quot;&gt;&lt;span style=&quot;background-color: rgb(255, 255, 255); font-size: 11px; text-align: center; text-wrap-mode: nowrap;&quot;&gt;+JWKSToRedis(jwks):registro&lt;/span&gt;&lt;/font&gt;&lt;/b&gt;&lt;/div&gt;" style="text;html=1;align=left;verticalAlign=middle;spacingLeft=4;spacingRight=4;overflow=hidden;rotatable=0;points=[[0,0.5],[1,0.5]];portConstraint=eastwest;whiteSpace=wrap;" vertex="1" parent="X-fCX3kYWMQUMlN2w1S6-3">
          <mxGeometry y="83" width="180" height="37" as="geometry" />
        </mxCell>
        <mxCell id="Wkwx20WPo2hdp1_dfm-k-1" value="Use" style="endArrow=open;endSize=12;dashed=1;html=1;rounded=0;" edge="1" parent="uwC5ymK-V9znXdQjigwV-1" source="X-fCX3kYWMQUMlN2w1S6-0" target="X-fCX3kYWMQUMlN2w1S6-3">
          <mxGeometry x="-0.3544" y="6" width="160" relative="1" as="geometry">
            <mxPoint x="1315" y="1195" as="sourcePoint" />
            <mxPoint x="1191" y="1363" as="targetPoint" />
            <mxPoint y="-1" as="offset" />
          </mxGeometry>
        </mxCell>
        <mxCell id="Wkwx20WPo2hdp1_dfm-k-2" value="" style="endArrow=block;startArrow=none;endFill=0;startFill=0;endSize=8;html=1;verticalAlign=bottom;dashed=1;labelBackgroundColor=none;rounded=0;jumpStyle=arc;jumpSize=12;" edge="1" parent="uwC5ymK-V9znXdQjigwV-1" source="X-fCX3kYWMQUMlN2w1S6-0" target="gb-RiZYImgQ7Ms3fl96j-3">
          <mxGeometry width="160" relative="1" as="geometry">
            <mxPoint x="1520" y="1229" as="sourcePoint" />
            <mxPoint x="1691" y="1000" as="targetPoint" />
          </mxGeometry>
        </mxCell>
        <mxCell id="Wkwx20WPo2hdp1_dfm-k-3" value="1" style="ellipse;whiteSpace=wrap;html=1;aspect=fixed;" vertex="1" parent="uwC5ymK-V9znXdQjigwV-1">
          <mxGeometry x="1545" y="1234" width="20" height="20" as="geometry" />
        </mxCell>
        <mxCell id="Wkwx20WPo2hdp1_dfm-k-4" value="Use" style="endArrow=open;endSize=12;dashed=1;html=1;rounded=0;exitX=0.5;exitY=0;exitDx=0;exitDy=0;" edge="1" parent="uwC5ymK-V9znXdQjigwV-1" source="Wkwx20WPo2hdp1_dfm-k-3" target="X-fCX3kYWMQUMlN2w1S6-0">
          <mxGeometry width="160" relative="1" as="geometry">
            <mxPoint x="1338" y="1244" as="sourcePoint" />
            <mxPoint x="1336" y="1195" as="targetPoint" />
          </mxGeometry>
        </mxCell>
      </root>
    </mxGraphModel>
  </diagram>
  <diagram name="Seq MPT3" id="B7idx9FjxpoOFMdXGeZd">
    <mxGraphModel dx="-1328" dy="-321" grid="1" gridSize="10" guides="1" tooltips="1" connect="1" arrows="1" fold="1" page="1" pageScale="1" pageWidth="1100" pageHeight="850" math="0" shadow="0">
      <root>
        <mxCell id="u3XzuJ6JBvZbT9BNvgNG-0" />
        <mxCell id="u3XzuJ6JBvZbT9BNvgNG-1" parent="u3XzuJ6JBvZbT9BNvgNG-0" />
        <mxCell id="izovBkt0zpYJHhvqd-Qn-0" value="PinDataModel" style="shape=umlLifeline;perimeter=lifelinePerimeter;whiteSpace=wrap;html=1;container=1;dropTarget=0;collapsible=0;recursiveResize=0;outlineConnect=0;portConstraint=eastwest;newEdgeStyle={&quot;curved&quot;:0,&quot;rounded&quot;:0};" parent="u3XzuJ6JBvZbT9BNvgNG-1" vertex="1">
          <mxGeometry x="5035" y="1361.5" width="130" height="1038.5" as="geometry" />
        </mxCell>
        <mxCell id="izovBkt0zpYJHhvqd-Qn-1" value="" style="html=1;points=[[0,0,0,0,5],[0,1,0,0,-5],[1,0,0,0,5],[1,1,0,0,-5]];perimeter=orthogonalPerimeter;outlineConnect=0;targetShapes=umlLifeline;portConstraint=eastwest;newEdgeStyle={&quot;curved&quot;:0,&quot;rounded&quot;:0};" parent="izovBkt0zpYJHhvqd-Qn-0" vertex="1">
          <mxGeometry x="60" y="412" width="10" height="428" as="geometry" />
        </mxCell>
        <mxCell id="izovBkt0zpYJHhvqd-Qn-2" value="PinDataModelDto" style="shape=umlLifeline;perimeter=lifelinePerimeter;whiteSpace=wrap;html=1;container=1;dropTarget=0;collapsible=0;recursiveResize=0;outlineConnect=0;portConstraint=eastwest;newEdgeStyle={&quot;curved&quot;:0,&quot;rounded&quot;:0};" parent="u3XzuJ6JBvZbT9BNvgNG-1" vertex="1">
          <mxGeometry x="4649" y="1362.5" width="130" height="1037.5" as="geometry" />
        </mxCell>
        <mxCell id="izovBkt0zpYJHhvqd-Qn-3" value="" style="html=1;points=[[0,0,0,0,5],[0,1,0,0,-5],[1,0,0,0,5],[1,1,0,0,-5]];perimeter=orthogonalPerimeter;outlineConnect=0;targetShapes=umlLifeline;portConstraint=eastwest;newEdgeStyle={&quot;curved&quot;:0,&quot;rounded&quot;:0};" parent="izovBkt0zpYJHhvqd-Qn-2" vertex="1">
          <mxGeometry x="60" y="325.5" width="10" height="31.5" as="geometry" />
        </mxCell>
        <mxCell id="izovBkt0zpYJHhvqd-Qn-4" value="&lt;span style=&quot;border-color: var(--border-color);&quot;&gt;MessageTranslatorIn&lt;/span&gt;" style="shape=umlLifeline;perimeter=lifelinePerimeter;whiteSpace=wrap;html=1;container=1;dropTarget=0;collapsible=0;recursiveResize=0;outlineConnect=0;portConstraint=eastwest;newEdgeStyle={&quot;curved&quot;:0,&quot;rounded&quot;:0};" parent="u3XzuJ6JBvZbT9BNvgNG-1" vertex="1">
          <mxGeometry x="4497" y="1362.5" width="140" height="1037.5" as="geometry" />
        </mxCell>
        <mxCell id="izovBkt0zpYJHhvqd-Qn-5" value="" style="html=1;points=[[0,0,0,0,5],[0,1,0,0,-5],[1,0,0,0,5],[1,1,0,0,-5]];perimeter=orthogonalPerimeter;outlineConnect=0;targetShapes=umlLifeline;portConstraint=eastwest;newEdgeStyle={&quot;curved&quot;:0,&quot;rounded&quot;:0};" parent="izovBkt0zpYJHhvqd-Qn-4" vertex="1">
          <mxGeometry x="65" y="313.5" width="10" height="63.5" as="geometry" />
        </mxCell>
        <mxCell id="izovBkt0zpYJHhvqd-Qn-6" value="create()" style="html=1;verticalAlign=bottom;endArrow=block;curved=0;rounded=0;" parent="izovBkt0zpYJHhvqd-Qn-4" target="izovBkt0zpYJHhvqd-Qn-3" edge="1">
          <mxGeometry relative="1" as="geometry">
            <mxPoint x="75" y="333.5" as="sourcePoint" />
            <mxPoint x="240" y="333.5" as="targetPoint" />
          </mxGeometry>
        </mxCell>
        <mxCell id="izovBkt0zpYJHhvqd-Qn-7" value="&lt;div&gt;&lt;span style=&quot;font-weight: 400;&quot;&gt;CardSecurity&lt;/span&gt;&lt;br&gt;&lt;/div&gt;&lt;span style=&quot;font-weight: 400;&quot;&gt;&amp;lt;&amp;lt;API PLARD&amp;gt;&amp;gt;&lt;/span&gt;" style="shape=umlLifeline;perimeter=lifelinePerimeter;whiteSpace=wrap;html=1;container=1;dropTarget=0;collapsible=0;recursiveResize=0;outlineConnect=0;portConstraint=eastwest;newEdgeStyle={&quot;curved&quot;:0,&quot;rounded&quot;:0};fontStyle=1;fillColor=#dae8fc;strokeColor=#6c8ebf;" parent="u3XzuJ6JBvZbT9BNvgNG-1" vertex="1">
          <mxGeometry x="5646" y="1361.25" width="100" height="1038.75" as="geometry" />
        </mxCell>
        <mxCell id="izovBkt0zpYJHhvqd-Qn-9" value="RedisStreamSubscriber" style="shape=umlLifeline;perimeter=lifelinePerimeter;whiteSpace=wrap;html=1;container=1;dropTarget=0;collapsible=0;recursiveResize=0;outlineConnect=0;portConstraint=eastwest;newEdgeStyle={&quot;curved&quot;:0,&quot;rounded&quot;:0};" parent="u3XzuJ6JBvZbT9BNvgNG-1" vertex="1">
          <mxGeometry x="4311" y="1362.5" width="140" height="1037.5" as="geometry" />
        </mxCell>
        <mxCell id="izovBkt0zpYJHhvqd-Qn-10" value="" style="html=1;points=[[0,0,0,0,5],[0,1,0,0,-5],[1,0,0,0,5],[1,1,0,0,-5]];perimeter=orthogonalPerimeter;outlineConnect=0;targetShapes=umlLifeline;portConstraint=eastwest;newEdgeStyle={&quot;curved&quot;:0,&quot;rounded&quot;:0};" parent="izovBkt0zpYJHhvqd-Qn-9" vertex="1">
          <mxGeometry x="65" y="197" width="10" height="225" as="geometry" />
        </mxCell>
        <mxCell id="izovBkt0zpYJHhvqd-Qn-11" value="ResetPinAttemptsUseCaseService" style="shape=umlLifeline;perimeter=lifelinePerimeter;whiteSpace=wrap;html=1;container=1;dropTarget=0;collapsible=0;recursiveResize=0;outlineConnect=0;portConstraint=eastwest;newEdgeStyle={&quot;curved&quot;:0,&quot;rounded&quot;:0};" parent="u3XzuJ6JBvZbT9BNvgNG-1" vertex="1">
          <mxGeometry x="4796" y="1361.5" width="210" height="1038.5" as="geometry" />
        </mxCell>
        <mxCell id="izovBkt0zpYJHhvqd-Qn-12" value="" style="html=1;points=[[0,0,0,0,5],[0,1,0,0,-5],[1,0,0,0,5],[1,1,0,0,-5]];perimeter=orthogonalPerimeter;outlineConnect=0;targetShapes=umlLifeline;portConstraint=eastwest;newEdgeStyle={&quot;curved&quot;:0,&quot;rounded&quot;:0};" parent="izovBkt0zpYJHhvqd-Qn-11" vertex="1">
          <mxGeometry x="99" y="392" width="10" height="628" as="geometry" />
        </mxCell>
        <mxCell id="izovBkt0zpYJHhvqd-Qn-13" value="resetPinAttemptsMpt3(PinDataModelDto)" style="html=1;verticalAlign=bottom;endArrow=block;curved=0;rounded=0;" parent="u3XzuJ6JBvZbT9BNvgNG-1" target="izovBkt0zpYJHhvqd-Qn-12" edge="1">
          <mxGeometry x="-0.0002" width="80" relative="1" as="geometry">
            <mxPoint x="4386" y="1772.5" as="sourcePoint" />
            <mxPoint x="4870" y="1773.25" as="targetPoint" />
            <mxPoint as="offset" />
          </mxGeometry>
        </mxCell>
        <mxCell id="izovBkt0zpYJHhvqd-Qn-14" value="resetPinAttempts(deviceId,numIntentos, jwks)" style="html=1;verticalAlign=bottom;endArrow=block;curved=0;rounded=0;align=center;" parent="u3XzuJ6JBvZbT9BNvgNG-1" edge="1">
          <mxGeometry x="0.001" width="80" relative="1" as="geometry">
            <mxPoint x="4906" y="1928" as="sourcePoint" />
            <mxPoint x="5239" y="1928" as="targetPoint" />
            <mxPoint as="offset" />
          </mxGeometry>
        </mxCell>
        <mxCell id="izovBkt0zpYJHhvqd-Qn-15" value="&lt;span style=&quot;color: rgb(51, 51, 51);&quot;&gt;DeviceLifeCycleClient&lt;/span&gt;" style="shape=umlLifeline;perimeter=lifelinePerimeter;whiteSpace=wrap;html=1;container=1;dropTarget=0;collapsible=0;recursiveResize=0;outlineConnect=0;portConstraint=eastwest;newEdgeStyle={&quot;curved&quot;:0,&quot;rounded&quot;:0};" parent="u3XzuJ6JBvZbT9BNvgNG-1" vertex="1">
          <mxGeometry x="5178" y="1362.5" width="130" height="1037.5" as="geometry" />
        </mxCell>
        <mxCell id="izovBkt0zpYJHhvqd-Qn-16" value="" style="html=1;points=[[0,0,0,0,5],[0,1,0,0,-5],[1,0,0,0,5],[1,1,0,0,-5]];perimeter=orthogonalPerimeter;outlineConnect=0;targetShapes=umlLifeline;portConstraint=eastwest;newEdgeStyle={&quot;curved&quot;:0,&quot;rounded&quot;:0};" parent="izovBkt0zpYJHhvqd-Qn-15" vertex="1">
          <mxGeometry x="61" y="551.5" width="10" height="268.5" as="geometry" />
        </mxCell>
        <mxCell id="izovBkt0zpYJHhvqd-Qn-18" value="&lt;span style=&quot;border-color: var(--border-color); font-weight: normal;&quot;&gt;EventKafkaPublisher&lt;/span&gt;" style="shape=umlLifeline;perimeter=lifelinePerimeter;whiteSpace=wrap;html=1;container=1;dropTarget=0;collapsible=0;recursiveResize=0;outlineConnect=0;portConstraint=eastwest;newEdgeStyle={&quot;curved&quot;:0,&quot;rounded&quot;:0};fontStyle=1" parent="u3XzuJ6JBvZbT9BNvgNG-1" vertex="1">
          <mxGeometry x="5965" y="1360" width="120" height="1040" as="geometry" />
        </mxCell>
        <mxCell id="izovBkt0zpYJHhvqd-Qn-19" value="" style="html=1;points=[[0,0,0,0,5],[0,1,0,0,-5],[1,0,0,0,5],[1,1,0,0,-5]];perimeter=orthogonalPerimeter;outlineConnect=0;targetShapes=umlLifeline;portConstraint=eastwest;newEdgeStyle={&quot;curved&quot;:0,&quot;rounded&quot;:0};" parent="izovBkt0zpYJHhvqd-Qn-18" vertex="1">
          <mxGeometry x="55" y="960.75" width="10" height="43.25" as="geometry" />
        </mxCell>
        <mxCell id="izovBkt0zpYJHhvqd-Qn-20" value="&lt;div&gt;CENTEL&lt;/div&gt;&amp;lt;&amp;lt;Canal Santander&amp;gt;&amp;gt;" style="shape=umlLifeline;perimeter=lifelinePerimeter;whiteSpace=wrap;html=1;container=1;dropTarget=0;collapsible=0;recursiveResize=0;outlineConnect=0;portConstraint=eastwest;newEdgeStyle={&quot;curved&quot;:0,&quot;rounded&quot;:0};" parent="u3XzuJ6JBvZbT9BNvgNG-1" vertex="1">
          <mxGeometry x="3263" y="1360.75" width="140" height="1039.25" as="geometry" />
        </mxCell>
        <mxCell id="izovBkt0zpYJHhvqd-Qn-21" value="" style="html=1;points=[[0,0,0,0,5],[0,1,0,0,-5],[1,0,0,0,5],[1,1,0,0,-5]];perimeter=orthogonalPerimeter;outlineConnect=0;targetShapes=umlLifeline;portConstraint=eastwest;newEdgeStyle={&quot;curved&quot;:0,&quot;rounded&quot;:0};" parent="izovBkt0zpYJHhvqd-Qn-20" vertex="1">
          <mxGeometry x="65" y="85" width="10" height="915" as="geometry" />
        </mxCell>
        <mxCell id="izovBkt0zpYJHhvqd-Qn-22" value="MQ Canal" style="shape=umlLifeline;perimeter=lifelinePerimeter;whiteSpace=wrap;html=1;container=1;dropTarget=0;collapsible=0;recursiveResize=0;outlineConnect=0;portConstraint=eastwest;newEdgeStyle={&quot;curved&quot;:0,&quot;rounded&quot;:0};" parent="u3XzuJ6JBvZbT9BNvgNG-1" vertex="1">
          <mxGeometry x="3412" y="1360.75" width="140" height="1039.25" as="geometry" />
        </mxCell>
        <mxCell id="izovBkt0zpYJHhvqd-Qn-23" value="" style="html=1;points=[[0,0,0,0,5],[0,1,0,0,-5],[1,0,0,0,5],[1,1,0,0,-5]];perimeter=orthogonalPerimeter;outlineConnect=0;targetShapes=umlLifeline;portConstraint=eastwest;newEdgeStyle={&quot;curved&quot;:0,&quot;rounded&quot;:0};" parent="izovBkt0zpYJHhvqd-Qn-22" vertex="1">
          <mxGeometry x="65" y="85" width="10" height="915" as="geometry" />
        </mxCell>
        <mxCell id="izovBkt0zpYJHhvqd-Qn-24" value="Starter&lt;div&gt;&amp;lt;&amp;lt;microservicio&amp;gt;&amp;gt;&lt;/div&gt;" style="shape=umlLifeline;perimeter=lifelinePerimeter;whiteSpace=wrap;html=1;container=1;dropTarget=0;collapsible=0;recursiveResize=0;outlineConnect=0;portConstraint=eastwest;newEdgeStyle={&quot;curved&quot;:0,&quot;rounded&quot;:0};" parent="u3XzuJ6JBvZbT9BNvgNG-1" vertex="1">
          <mxGeometry x="3761" y="1362.25" width="140" height="1037.75" as="geometry" />
        </mxCell>
        <mxCell id="izovBkt0zpYJHhvqd-Qn-25" value="" style="html=1;points=[[0,0,0,0,5],[0,1,0,0,-5],[1,0,0,0,5],[1,1,0,0,-5]];perimeter=orthogonalPerimeter;outlineConnect=0;targetShapes=umlLifeline;portConstraint=eastwest;newEdgeStyle={&quot;curved&quot;:0,&quot;rounded&quot;:0};" parent="izovBkt0zpYJHhvqd-Qn-24" vertex="1">
          <mxGeometry x="65" y="130" width="10" height="238" as="geometry" />
        </mxCell>
        <mxCell id="izovBkt0zpYJHhvqd-Qn-26" value="Redis Streams" style="shape=umlLifeline;perimeter=lifelinePerimeter;whiteSpace=wrap;html=1;container=1;dropTarget=0;collapsible=0;recursiveResize=0;outlineConnect=0;portConstraint=eastwest;newEdgeStyle={&quot;curved&quot;:0,&quot;rounded&quot;:0};fillColor=#dae8fc;strokeColor=#6c8ebf;" parent="u3XzuJ6JBvZbT9BNvgNG-1" vertex="1">
          <mxGeometry x="4131" y="1363.5" width="140" height="1036.5" as="geometry" />
        </mxCell>
        <mxCell id="izovBkt0zpYJHhvqd-Qn-27" value="" style="html=1;points=[[0,0,0,0,5],[0,1,0,0,-5],[1,0,0,0,5],[1,1,0,0,-5]];perimeter=orthogonalPerimeter;outlineConnect=0;targetShapes=umlLifeline;portConstraint=eastwest;newEdgeStyle={&quot;curved&quot;:0,&quot;rounded&quot;:0};" parent="izovBkt0zpYJHhvqd-Qn-26" vertex="1">
          <mxGeometry x="65" y="197" width="10" height="130" as="geometry" />
        </mxCell>
        <mxCell id="izovBkt0zpYJHhvqd-Qn-28" value="" style="html=1;points=[[0,0,0,0,5],[0,1,0,0,-5],[1,0,0,0,5],[1,1,0,0,-5]];perimeter=orthogonalPerimeter;outlineConnect=0;targetShapes=umlLifeline;portConstraint=eastwest;newEdgeStyle={&quot;curved&quot;:0,&quot;rounded&quot;:0};" parent="izovBkt0zpYJHhvqd-Qn-26" vertex="1">
          <mxGeometry x="65" y="936" width="10" height="40" as="geometry" />
        </mxCell>
        <mxCell id="izovBkt0zpYJHhvqd-Qn-29" value="" style="html=1;points=[[0,0,0,0,5],[0,1,0,0,-5],[1,0,0,0,5],[1,1,0,0,-5]];perimeter=orthogonalPerimeter;outlineConnect=0;targetShapes=umlLifeline;portConstraint=eastwest;newEdgeStyle={&quot;curved&quot;:0,&quot;rounded&quot;:0};" parent="izovBkt0zpYJHhvqd-Qn-26" vertex="1">
          <mxGeometry x="65" y="97.75" width="10" height="55" as="geometry" />
        </mxCell>
        <mxCell id="izovBkt0zpYJHhvqd-Qn-30" value="Envía mensaje&amp;nbsp;&lt;div&gt;&lt;span style=&quot;background-color: light-dark(#ffffff, var(--ge-dark-color, #121212)); color: light-dark(rgb(0, 0, 0), rgb(255, 255, 255));&quot;&gt;Consulta&amp;nbsp;&lt;/span&gt;&lt;span style=&quot;color: light-dark(rgb(0, 0, 0), rgb(255, 255, 255)); background-color: light-dark(#ffffff, var(--ge-dark-color, #121212));&quot;&gt;tarjetas por&amp;nbsp;&lt;/span&gt;&lt;/div&gt;&lt;div&gt;&lt;span style=&quot;color: light-dark(rgb(0, 0, 0), rgb(255, 255, 255)); background-color: light-dark(#ffffff, var(--ge-dark-color, #121212));&quot;&gt;cuenta&amp;nbsp;&lt;/span&gt;&lt;span style=&quot;color: light-dark(rgb(0, 0, 0), rgb(255, 255, 255)); background-color: light-dark(#ffffff, var(--ge-dark-color, #121212));&quot;&gt;(&lt;/span&gt;&lt;font style=&quot;color: rgb(0, 0, 0); background-color: light-dark(#ffffff, var(--ge-dark-color, #121212));&quot;&gt;MPT3&lt;/font&gt;&lt;font style=&quot;color: light-dark(rgb(0, 0, 0), rgb(255, 255, 255)); background-color: light-dark(#ffffff, var(--ge-dark-color, #121212));&quot;&gt;&amp;nbsp;&lt;/font&gt;&lt;span style=&quot;color: light-dark(rgb(0, 0, 0), rgb(255, 255, 255)); background-color: light-dark(#ffffff, var(--ge-dark-color, #121212));&quot;&gt;trx)&lt;/span&gt;&lt;/div&gt;" style="html=1;verticalAlign=bottom;endArrow=block;curved=0;rounded=0;" parent="u3XzuJ6JBvZbT9BNvgNG-1" source="izovBkt0zpYJHhvqd-Qn-21" edge="1">
          <mxGeometry width="80" relative="1" as="geometry">
            <mxPoint x="3348" y="1459.25" as="sourcePoint" />
            <mxPoint x="3477" y="1459.5" as="targetPoint" />
            <mxPoint as="offset" />
          </mxGeometry>
        </mxCell>
        <mxCell id="izovBkt0zpYJHhvqd-Qn-31" value="lee mensaje&amp;nbsp;&lt;div&gt;(&lt;font&gt;MPT3&amp;nbsp;&lt;/font&gt;trx)&lt;/div&gt;" style="html=1;verticalAlign=bottom;endArrow=block;curved=0;rounded=0;" parent="u3XzuJ6JBvZbT9BNvgNG-1" edge="1">
          <mxGeometry x="0.0046" width="80" relative="1" as="geometry">
            <mxPoint x="3625" y="1468" as="sourcePoint" />
            <mxPoint x="3487" y="1468" as="targetPoint" />
            <mxPoint as="offset" />
          </mxGeometry>
        </mxCell>
        <mxCell id="izovBkt0zpYJHhvqd-Qn-32" value="valida si es tarjeta PLARD" style="html=1;align=left;spacingLeft=2;endArrow=block;rounded=0;edgeStyle=orthogonalEdgeStyle;curved=0;rounded=0;" parent="u3XzuJ6JBvZbT9BNvgNG-1" edge="1">
          <mxGeometry relative="1" as="geometry">
            <mxPoint x="3831" y="1619" as="sourcePoint" />
            <Array as="points">
              <mxPoint x="3861" y="1649" />
            </Array>
            <mxPoint x="3836" y="1649.0588235294117" as="targetPoint" />
          </mxGeometry>
        </mxCell>
        <mxCell id="izovBkt0zpYJHhvqd-Qn-33" value="envía mensaje (&lt;font style=&quot;color: rgb(0, 0, 0);&quot;&gt;MPT3&lt;/font&gt;&amp;nbsp;trx)" style="html=1;verticalAlign=bottom;endArrow=block;curved=0;rounded=0;" parent="u3XzuJ6JBvZbT9BNvgNG-1" edge="1">
          <mxGeometry width="80" relative="1" as="geometry">
            <mxPoint x="3836" y="1670.25" as="sourcePoint" />
            <mxPoint x="4196" y="1670.25" as="targetPoint" />
            <mxPoint as="offset" />
          </mxGeometry>
        </mxCell>
        <mxCell id="izovBkt0zpYJHhvqd-Qn-34" value="suscribirse a Stream" style="html=1;verticalAlign=bottom;endArrow=block;curved=0;rounded=0;" parent="u3XzuJ6JBvZbT9BNvgNG-1" edge="1">
          <mxGeometry x="0.0046" width="80" relative="1" as="geometry">
            <mxPoint x="4376" y="1574.5" as="sourcePoint" />
            <mxPoint x="4206" y="1574.5" as="targetPoint" />
            <mxPoint as="offset" />
          </mxGeometry>
        </mxCell>
        <mxCell id="izovBkt0zpYJHhvqd-Qn-35" value="leer mensaje (&lt;span style=&quot;color: rgb(255, 0, 0);&quot;&gt;&lt;font style=&quot;color: rgb(0, 0, 0);&quot;&gt;MPT3&lt;/font&gt;&lt;/span&gt;&lt;span style=&quot;color: rgb(255, 0, 0);&quot;&gt;&amp;nbsp;&lt;/span&gt;trx)" style="html=1;verticalAlign=bottom;endArrow=block;curved=0;rounded=0;" parent="u3XzuJ6JBvZbT9BNvgNG-1" edge="1">
          <mxGeometry x="0.0046" width="80" relative="1" as="geometry">
            <mxPoint x="4376" y="1678.5" as="sourcePoint" />
            <mxPoint x="4206" y="1678.5" as="targetPoint" />
            <mxPoint as="offset" />
          </mxGeometry>
        </mxCell>
        <mxCell id="izovBkt0zpYJHhvqd-Qn-36" value="convertir PS7 a DTO&lt;div&gt;requestMpt3ToPinData(String)&lt;/div&gt;" style="html=1;verticalAlign=bottom;endArrow=block;curved=0;rounded=0;" parent="u3XzuJ6JBvZbT9BNvgNG-1" source="izovBkt0zpYJHhvqd-Qn-10" edge="1">
          <mxGeometry x="0.0046" width="80" relative="1" as="geometry">
            <mxPoint x="4398" y="1686.25" as="sourcePoint" />
            <mxPoint x="4562" y="1686" as="targetPoint" />
            <mxPoint as="offset" />
          </mxGeometry>
        </mxCell>
        <mxCell id="izovBkt0zpYJHhvqd-Qn-37" value="return" style="html=1;verticalAlign=bottom;endArrow=open;dashed=1;endSize=8;curved=0;rounded=0;" parent="u3XzuJ6JBvZbT9BNvgNG-1" target="izovBkt0zpYJHhvqd-Qn-10" edge="1">
          <mxGeometry relative="1" as="geometry">
            <mxPoint x="4378" y="1731.25" as="targetPoint" />
            <mxPoint x="4562" y="1731.0000000000005" as="sourcePoint" />
          </mxGeometry>
        </mxCell>
        <mxCell id="izovBkt0zpYJHhvqd-Qn-38" value="return" style="html=1;verticalAlign=bottom;endArrow=open;dashed=1;endSize=8;curved=0;rounded=0;exitX=0;exitY=1;exitDx=0;exitDy=-5;" parent="u3XzuJ6JBvZbT9BNvgNG-1" target="izovBkt0zpYJHhvqd-Qn-5" edge="1">
          <mxGeometry relative="1" as="geometry">
            <mxPoint x="4590" y="1717.25" as="targetPoint" />
            <mxPoint x="4709" y="1717.5" as="sourcePoint" />
          </mxGeometry>
        </mxCell>
        <mxCell id="izovBkt0zpYJHhvqd-Qn-39" value="guardar datos en modelo de dominio" style="html=1;verticalAlign=bottom;endArrow=block;curved=0;rounded=0;" parent="u3XzuJ6JBvZbT9BNvgNG-1" edge="1">
          <mxGeometry relative="1" as="geometry">
            <mxPoint x="4906" y="1784" as="sourcePoint" />
            <mxPoint x="5095" y="1784" as="targetPoint" />
          </mxGeometry>
        </mxCell>
        <mxCell id="izovBkt0zpYJHhvqd-Qn-41" value="CardSecurityTranslator" style="shape=umlLifeline;perimeter=lifelinePerimeter;whiteSpace=wrap;html=1;container=1;dropTarget=0;collapsible=0;recursiveResize=0;outlineConnect=0;portConstraint=eastwest;newEdgeStyle={&quot;curved&quot;:0,&quot;rounded&quot;:0};" parent="u3XzuJ6JBvZbT9BNvgNG-1" vertex="1">
          <mxGeometry x="5460" y="1363.5" width="150" height="1036.5" as="geometry" />
        </mxCell>
        <mxCell id="izovBkt0zpYJHhvqd-Qn-42" value="" style="html=1;points=[[0,0,0,0,5],[0,1,0,0,-5],[1,0,0,0,5],[1,1,0,0,-5]];perimeter=orthogonalPerimeter;outlineConnect=0;targetShapes=umlLifeline;portConstraint=eastwest;newEdgeStyle={&quot;curved&quot;:0,&quot;rounded&quot;:0};" parent="izovBkt0zpYJHhvqd-Qn-41" vertex="1">
          <mxGeometry x="70" y="581.5" width="10" height="68.5" as="geometry" />
        </mxCell>
        <mxCell id="izovBkt0zpYJHhvqd-Qn-43" value="" style="html=1;points=[[0,0,0,0,5],[0,1,0,0,-5],[1,0,0,0,5],[1,1,0,0,-5]];perimeter=orthogonalPerimeter;outlineConnect=0;targetShapes=umlLifeline;portConstraint=eastwest;newEdgeStyle={&quot;curved&quot;:0,&quot;rounded&quot;:0};" parent="izovBkt0zpYJHhvqd-Qn-41" vertex="1">
          <mxGeometry x="70" y="722" width="10" height="78" as="geometry" />
        </mxCell>
        <mxCell id="izovBkt0zpYJHhvqd-Qn-44" value="getResetPinAttemptsJweRequest(numIntentos, jwks)" style="html=1;verticalAlign=bottom;endArrow=block;curved=0;rounded=0;align=center;" parent="u3XzuJ6JBvZbT9BNvgNG-1" target="izovBkt0zpYJHhvqd-Qn-42" edge="1">
          <mxGeometry width="80" relative="1" as="geometry">
            <mxPoint x="5249" y="1949.75" as="sourcePoint" />
            <mxPoint x="5455" y="1949.75" as="targetPoint" />
          </mxGeometry>
        </mxCell>
        <mxCell id="izovBkt0zpYJHhvqd-Qn-48" value="return" style="html=1;verticalAlign=bottom;endArrow=open;dashed=1;endSize=8;curved=0;rounded=0;" parent="u3XzuJ6JBvZbT9BNvgNG-1" edge="1">
          <mxGeometry relative="1" as="geometry">
            <mxPoint x="5530" y="2004.75" as="sourcePoint" />
            <mxPoint x="5249" y="2004.75" as="targetPoint" />
          </mxGeometry>
        </mxCell>
        <mxCell id="izovBkt0zpYJHhvqd-Qn-50" value="&lt;span style=&quot;border-color: var(--border-color); font-weight: normal;&quot;&gt;MessageTranslatorOut&lt;/span&gt;" style="shape=umlLifeline;perimeter=lifelinePerimeter;whiteSpace=wrap;html=1;container=1;dropTarget=0;collapsible=0;recursiveResize=0;outlineConnect=0;portConstraint=eastwest;newEdgeStyle={&quot;curved&quot;:0,&quot;rounded&quot;:0};fontStyle=1" parent="u3XzuJ6JBvZbT9BNvgNG-1" vertex="1">
          <mxGeometry x="5785" y="1360" width="140" height="1040" as="geometry" />
        </mxCell>
        <mxCell id="izovBkt0zpYJHhvqd-Qn-51" value="" style="html=1;points=[[0,0,0,0,5],[0,1,0,0,-5],[1,0,0,0,5],[1,1,0,0,-5]];perimeter=orthogonalPerimeter;outlineConnect=0;targetShapes=umlLifeline;portConstraint=eastwest;newEdgeStyle={&quot;curved&quot;:0,&quot;rounded&quot;:0};" parent="izovBkt0zpYJHhvqd-Qn-50" vertex="1">
          <mxGeometry x="65" y="886.75" width="10" height="43.25" as="geometry" />
        </mxCell>
        <mxCell id="izovBkt0zpYJHhvqd-Qn-52" value="sendRespMessageMPT3(PinDataModel)" style="html=1;verticalAlign=bottom;endArrow=block;curved=0;rounded=0;labelBackgroundColor=none;" parent="u3XzuJ6JBvZbT9BNvgNG-1" target="izovBkt0zpYJHhvqd-Qn-51" edge="1">
          <mxGeometry width="80" relative="1" as="geometry">
            <mxPoint x="4905" y="2259.25" as="sourcePoint" />
            <mxPoint x="5885" y="2259.25" as="targetPoint" />
            <mxPoint as="offset" />
          </mxGeometry>
        </mxCell>
        <mxCell id="izovBkt0zpYJHhvqd-Qn-53" value="&lt;font style=&quot;font-size: 11px;&quot;&gt;return&amp;nbsp;&lt;span style=&quot;text-align: left; text-wrap: wrap; background-color: rgb(251, 251, 251);&quot;&gt;messagePS7&lt;/span&gt;&lt;/font&gt;" style="html=1;verticalAlign=bottom;endArrow=open;dashed=1;endSize=8;curved=0;rounded=0;" parent="u3XzuJ6JBvZbT9BNvgNG-1" source="izovBkt0zpYJHhvqd-Qn-51" edge="1">
          <mxGeometry relative="1" as="geometry">
            <mxPoint x="5885" y="2281.8749999999995" as="sourcePoint" />
            <mxPoint x="4905" y="2281.8749999999995" as="targetPoint" />
          </mxGeometry>
        </mxCell>
        <mxCell id="izovBkt0zpYJHhvqd-Qn-54" value="publicar mensaje (&lt;font style=&quot;color: rgb(0, 0, 0);&quot;&gt;MPT3&lt;/font&gt;&lt;font color=&quot;#ff0000&quot;&gt;&amp;nbsp;&lt;/font&gt;trx Response)" style="html=1;verticalAlign=bottom;endArrow=block;curved=0;rounded=0;" parent="u3XzuJ6JBvZbT9BNvgNG-1" edge="1">
          <mxGeometry x="0.0002" width="80" relative="1" as="geometry">
            <mxPoint x="4895" y="2305.5" as="sourcePoint" />
            <mxPoint x="4206" y="2305.5" as="targetPoint" />
            <mxPoint as="offset" />
          </mxGeometry>
        </mxCell>
        <mxCell id="izovBkt0zpYJHhvqd-Qn-55" value="Obtener mensaje&amp;nbsp;&lt;div&gt;(&lt;span style=&quot;color: rgb(255, 0, 0);&quot;&gt;&lt;font style=&quot;color: rgb(0, 0, 0);&quot;&gt;MPT3&lt;/font&gt;&lt;/span&gt;&lt;span style=&quot;color: rgb(255, 0, 0);&quot;&gt;&amp;nbsp;&lt;/span&gt;trx response)&lt;/div&gt;" style="html=1;verticalAlign=bottom;endArrow=block;curved=0;rounded=0;" parent="u3XzuJ6JBvZbT9BNvgNG-1" edge="1">
          <mxGeometry x="-0.0781" width="80" relative="1" as="geometry">
            <mxPoint x="3635" y="2314.2662499999997" as="sourcePoint" />
            <mxPoint x="4196" y="2314.2662499999997" as="targetPoint" />
            <mxPoint as="offset" />
          </mxGeometry>
        </mxCell>
        <mxCell id="izovBkt0zpYJHhvqd-Qn-56" value="return MPT3&lt;span style=&quot;color: rgb(255, 0, 0);&quot;&gt;&amp;nbsp;&lt;/span&gt;trx" style="html=1;verticalAlign=bottom;endArrow=open;dashed=1;endSize=8;curved=0;rounded=0;exitX=0;exitY=1;exitDx=0;exitDy=-5;exitPerimeter=0;" parent="u3XzuJ6JBvZbT9BNvgNG-1" source="izovBkt0zpYJHhvqd-Qn-28" target="izovBkt0zpYJHhvqd-Qn-85" edge="1">
          <mxGeometry relative="1" as="geometry">
            <mxPoint x="3826" y="2271" as="sourcePoint" />
            <mxPoint x="3687.0000000000005" y="2271" as="targetPoint" />
          </mxGeometry>
        </mxCell>
        <mxCell id="izovBkt0zpYJHhvqd-Qn-57" value="Obtiene mensaje&amp;nbsp;&lt;div&gt;respuesta&amp;nbsp;&lt;span style=&quot;background-color: initial; color: light-dark(rgb(0, 0, 0), rgb(255, 255, 255));&quot;&gt;de la consulta&amp;nbsp;&lt;/span&gt;&lt;/div&gt;&lt;div&gt;&lt;span style=&quot;background-color: initial; color: light-dark(rgb(0, 0, 0), rgb(255, 255, 255));&quot;&gt;(&lt;/span&gt;&lt;span style=&quot;background-color: rgb(255, 255, 255); color: rgb(255, 0, 0);&quot;&gt;&lt;font style=&quot;color: rgb(0, 0, 0);&quot;&gt;MPT3&lt;/font&gt;&lt;/span&gt;&lt;span style=&quot;color: rgb(255, 0, 0); background-color: rgb(255, 255, 255);&quot;&gt;&amp;nbsp;&lt;/span&gt;&lt;span style=&quot;background-color: initial; color: light-dark(rgb(0, 0, 0), rgb(255, 255, 255));&quot;&gt;trx)&lt;/span&gt;&lt;/div&gt;" style="html=1;verticalAlign=bottom;endArrow=block;curved=0;rounded=0;labelBackgroundColor=none;" parent="u3XzuJ6JBvZbT9BNvgNG-1" edge="1">
          <mxGeometry x="0.0009" width="80" relative="1" as="geometry">
            <mxPoint x="3338" y="2346.5" as="sourcePoint" />
            <mxPoint x="3477" y="2346.5" as="targetPoint" />
            <mxPoint as="offset" />
          </mxGeometry>
        </mxCell>
        <mxCell id="izovBkt0zpYJHhvqd-Qn-59" value="sendAudit(PinDataModel)" style="html=1;verticalAlign=bottom;endArrow=block;curved=0;rounded=0;" parent="u3XzuJ6JBvZbT9BNvgNG-1" target="izovBkt0zpYJHhvqd-Qn-19" edge="1">
          <mxGeometry x="-0.0278" y="-2" width="80" relative="1" as="geometry">
            <mxPoint x="4906" y="2334.25" as="sourcePoint" />
            <mxPoint x="6278" y="2334.25" as="targetPoint" />
            <mxPoint as="offset" />
          </mxGeometry>
        </mxCell>
        <mxCell id="izovBkt0zpYJHhvqd-Qn-60" value="ref - Pista Auditoria" style="shape=umlFrame;whiteSpace=wrap;html=1;pointerEvents=0;width=120;height=22;" parent="u3XzuJ6JBvZbT9BNvgNG-1" vertex="1">
          <mxGeometry x="5970" y="2287.25" width="145" height="84.25" as="geometry" />
        </mxCell>
        <mxCell id="izovBkt0zpYJHhvqd-Qn-61" value="return" style="html=1;verticalAlign=bottom;endArrow=open;dashed=1;endSize=8;curved=0;rounded=0;" parent="u3XzuJ6JBvZbT9BNvgNG-1" source="izovBkt0zpYJHhvqd-Qn-19" edge="1">
          <mxGeometry relative="1" as="geometry">
            <mxPoint x="6271" y="2356.5" as="sourcePoint" />
            <mxPoint x="4905" y="2355.8605" as="targetPoint" />
          </mxGeometry>
        </mxCell>
        <mxCell id="izovBkt0zpYJHhvqd-Qn-62" value="Actualizar información" style="html=1;verticalAlign=bottom;endArrow=block;curved=0;rounded=0;" parent="u3XzuJ6JBvZbT9BNvgNG-1" edge="1">
          <mxGeometry relative="1" as="geometry">
            <mxPoint x="4906" y="1811" as="sourcePoint" />
            <mxPoint x="5095" y="1811" as="targetPoint" />
          </mxGeometry>
        </mxCell>
        <mxCell id="izovBkt0zpYJHhvqd-Qn-64" value="card-place-locator&lt;div&gt;&amp;lt;&amp;lt;microservicio&amp;gt;&amp;gt;&lt;/div&gt;" style="shape=umlLifeline;perimeter=lifelinePerimeter;whiteSpace=wrap;html=1;container=1;dropTarget=0;collapsible=0;recursiveResize=0;outlineConnect=0;portConstraint=eastwest;newEdgeStyle={&quot;curved&quot;:0,&quot;rounded&quot;:0};" parent="u3XzuJ6JBvZbT9BNvgNG-1" vertex="1">
          <mxGeometry x="3973" y="1362.88" width="140" height="1037.12" as="geometry" />
        </mxCell>
        <mxCell id="izovBkt0zpYJHhvqd-Qn-65" value="" style="html=1;points=[[0,0,0,0,5],[0,1,0,0,-5],[1,0,0,0,5],[1,1,0,0,-5]];perimeter=orthogonalPerimeter;outlineConnect=0;targetShapes=umlLifeline;portConstraint=eastwest;newEdgeStyle={&quot;curved&quot;:0,&quot;rounded&quot;:0};" parent="izovBkt0zpYJHhvqd-Qn-64" vertex="1">
          <mxGeometry x="65" y="204" width="10" height="43" as="geometry" />
        </mxCell>
        <mxCell id="izovBkt0zpYJHhvqd-Qn-66" value="&lt;div style=&quot;&quot;&gt;&lt;br&gt;&lt;/div&gt;" style="html=1;verticalAlign=bottom;endArrow=block;curved=0;rounded=0;fontSize=11;align=center;" parent="u3XzuJ6JBvZbT9BNvgNG-1" edge="1">
          <mxGeometry x="0.0046" width="80" relative="1" as="geometry">
            <mxPoint x="3836" y="1572.88" as="sourcePoint" />
            <mxPoint x="4038" y="1572.8799999999999" as="targetPoint" />
            <mxPoint as="offset" />
          </mxGeometry>
        </mxCell>
        <mxCell id="izovBkt0zpYJHhvqd-Qn-67" value="return" style="html=1;verticalAlign=bottom;endArrow=block;curved=0;rounded=0;" parent="u3XzuJ6JBvZbT9BNvgNG-1" edge="1">
          <mxGeometry x="0.0046" width="80" relative="1" as="geometry">
            <mxPoint x="4038" y="1601.3799999999999" as="sourcePoint" />
            <mxPoint x="3836" y="1601.38" as="targetPoint" />
            <mxPoint as="offset" />
          </mxGeometry>
        </mxCell>
        <mxCell id="izovBkt0zpYJHhvqd-Qn-68" value="&lt;div style=&quot;forced-color-adjust: none; color: rgb(0, 0, 0); font-family: Helvetica; font-size: 11px; font-style: normal; font-variant-ligatures: normal; font-variant-caps: normal; font-weight: 400; letter-spacing: normal; orphans: 2; text-indent: 0px; text-transform: none; widows: 2; word-spacing: 0px; -webkit-text-stroke-width: 0px; white-space: nowrap; text-decoration-thickness: initial; text-decoration-style: initial; text-decoration-color: initial;&quot;&gt;&lt;span style=&quot;forced-color-adjust: none; text-wrap: wrap; background-color: rgb(251, 251, 251);&quot;&gt;consulta configuracion&amp;nbsp;&lt;/span&gt;&lt;span style=&quot;background-color: light-dark(rgb(251, 251, 251), rgb(251, 251, 251)); color: light-dark(rgb(0, 0, 0), rgb(255, 255, 255)); text-wrap: wrap;&quot;&gt;cardId&lt;/span&gt;&lt;/div&gt;" style="text;whiteSpace=wrap;html=1;align=center;" parent="u3XzuJ6JBvZbT9BNvgNG-1" vertex="1">
          <mxGeometry x="3836" y="1550" width="206" height="28" as="geometry" />
        </mxCell>
        <mxCell id="izovBkt0zpYJHhvqd-Qn-75" value="return" style="html=1;verticalAlign=bottom;endArrow=open;dashed=1;endSize=8;curved=0;rounded=0;" parent="u3XzuJ6JBvZbT9BNvgNG-1" edge="1">
          <mxGeometry relative="1" as="geometry">
            <mxPoint x="5239" y="2173.25" as="sourcePoint" />
            <mxPoint x="4906" y="2173.25" as="targetPoint" />
          </mxGeometry>
        </mxCell>
        <mxCell id="izovBkt0zpYJHhvqd-Qn-82" value="Actualizar información" style="html=1;verticalAlign=bottom;endArrow=block;curved=0;rounded=0;" parent="u3XzuJ6JBvZbT9BNvgNG-1" edge="1">
          <mxGeometry relative="1" as="geometry">
            <mxPoint x="4906" y="2193.25" as="sourcePoint" />
            <mxPoint x="5095" y="2193.25" as="targetPoint" />
          </mxGeometry>
        </mxCell>
        <mxCell id="izovBkt0zpYJHhvqd-Qn-83" value="Launcher&lt;div&gt;&amp;lt;&amp;lt;microservicio&amp;gt;&amp;gt;&lt;/div&gt;" style="shape=umlLifeline;perimeter=lifelinePerimeter;whiteSpace=wrap;html=1;container=1;dropTarget=0;collapsible=0;recursiveResize=0;outlineConnect=0;portConstraint=eastwest;newEdgeStyle={&quot;curved&quot;:0,&quot;rounded&quot;:0};" parent="u3XzuJ6JBvZbT9BNvgNG-1" vertex="1">
          <mxGeometry x="3560" y="1360" width="140" height="1040" as="geometry" />
        </mxCell>
        <mxCell id="izovBkt0zpYJHhvqd-Qn-84" value="" style="html=1;points=[[0,0,0,0,5],[0,1,0,0,-5],[1,0,0,0,5],[1,1,0,0,-5]];perimeter=orthogonalPerimeter;outlineConnect=0;targetShapes=umlLifeline;portConstraint=eastwest;newEdgeStyle={&quot;curved&quot;:0,&quot;rounded&quot;:0};" parent="izovBkt0zpYJHhvqd-Qn-83" vertex="1">
          <mxGeometry x="65" y="95" width="10" height="35" as="geometry" />
        </mxCell>
        <mxCell id="izovBkt0zpYJHhvqd-Qn-85" value="" style="html=1;points=[[0,0,0,0,5],[0,1,0,0,-5],[1,0,0,0,5],[1,1,0,0,-5]];perimeter=orthogonalPerimeter;outlineConnect=0;targetShapes=umlLifeline;portConstraint=eastwest;newEdgeStyle={&quot;curved&quot;:0,&quot;rounded&quot;:0};" parent="izovBkt0zpYJHhvqd-Qn-83" vertex="1">
          <mxGeometry x="65" y="937.25" width="10" height="68.75" as="geometry" />
        </mxCell>
        <mxCell id="izovBkt0zpYJHhvqd-Qn-86" value="publicar mensaje&amp;nbsp;&lt;div&gt;(&lt;font&gt;MPT3&amp;nbsp;&lt;/font&gt;trx)&lt;/div&gt;" style="html=1;verticalAlign=bottom;endArrow=block;curved=0;rounded=0;" parent="u3XzuJ6JBvZbT9BNvgNG-1" edge="1">
          <mxGeometry x="0.0046" width="80" relative="1" as="geometry">
            <mxPoint x="3635" y="1476.5" as="sourcePoint" />
            <mxPoint x="4196" y="1476.5" as="targetPoint" />
            <mxPoint as="offset" />
          </mxGeometry>
        </mxCell>
        <mxCell id="izovBkt0zpYJHhvqd-Qn-87" value="leer mensaje (MPT3 trx)" style="endArrow=classic;html=1;rounded=0;" parent="u3XzuJ6JBvZbT9BNvgNG-1" edge="1">
          <mxGeometry width="50" height="50" relative="1" as="geometry">
            <mxPoint x="3836" y="1501.25" as="sourcePoint" />
            <mxPoint x="4196" y="1501.25" as="targetPoint" />
          </mxGeometry>
        </mxCell>
        <mxCell id="izovBkt0zpYJHhvqd-Qn-88" value="Publicar mensaje&amp;nbsp;&lt;div&gt;respuesta&lt;/div&gt;&lt;div&gt;&lt;span style=&quot;background-color: initial; color: light-dark(rgb(0, 0, 0), rgb(255, 255, 255));&quot;&gt;(&lt;/span&gt;&lt;span style=&quot;background-color: rgb(255, 255, 255); color: rgb(255, 0, 0);&quot;&gt;&lt;font style=&quot;color: rgb(0, 0, 0);&quot;&gt;MPT3&lt;/font&gt;&lt;/span&gt;&lt;span style=&quot;color: rgb(255, 0, 0); background-color: rgb(255, 255, 255);&quot;&gt;&amp;nbsp;&lt;/span&gt;&lt;span style=&quot;background-color: initial; color: light-dark(rgb(0, 0, 0), rgb(255, 255, 255));&quot;&gt;trx)&lt;/span&gt;&lt;/div&gt;" style="html=1;verticalAlign=bottom;endArrow=block;curved=0;rounded=0;labelBackgroundColor=none;" parent="u3XzuJ6JBvZbT9BNvgNG-1" source="izovBkt0zpYJHhvqd-Qn-85" edge="1">
          <mxGeometry x="0.0046" width="80" relative="1" as="geometry">
            <mxPoint x="3348" y="2294.5" as="sourcePoint" />
            <mxPoint x="3487" y="2331.625" as="targetPoint" />
            <mxPoint as="offset" />
          </mxGeometry>
        </mxCell>
        <mxCell id="tggYUkSsL3YokwrK_cMU-0" value="GetJWKS" style="shape=umlFrame;whiteSpace=wrap;html=1;pointerEvents=0;" parent="u3XzuJ6JBvZbT9BNvgNG-1" vertex="1">
          <mxGeometry x="4788" y="1830" width="212" height="60" as="geometry" />
        </mxCell>
        <mxCell id="izovBkt0zpYJHhvqd-Qn-8" value="" style="html=1;points=[[0,0,0,0,5],[0,1,0,0,-5],[1,0,0,0,5],[1,1,0,0,-5]];perimeter=orthogonalPerimeter;outlineConnect=0;targetShapes=umlLifeline;portConstraint=eastwest;newEdgeStyle={&quot;curved&quot;:0,&quot;rounded&quot;:0};" parent="u3XzuJ6JBvZbT9BNvgNG-1" vertex="1">
          <mxGeometry x="5691" y="2032.25" width="10" height="33.25" as="geometry" />
        </mxCell>
        <mxCell id="izovBkt0zpYJHhvqd-Qn-40" value="(POST)&amp;nbsp;/{card_id}/reset_pin_attempts" style="html=1;verticalAlign=bottom;endArrow=block;curved=0;rounded=0;align=center;spacing=2;fontStyle=1" parent="u3XzuJ6JBvZbT9BNvgNG-1" target="izovBkt0zpYJHhvqd-Qn-8" edge="1">
          <mxGeometry x="0.0003" width="80" relative="1" as="geometry">
            <mxPoint x="5249" y="2039.5" as="sourcePoint" />
            <mxPoint x="5710" y="2042.25" as="targetPoint" />
            <mxPoint as="offset" />
          </mxGeometry>
        </mxCell>
        <mxCell id="izovBkt0zpYJHhvqd-Qn-49" value="return" style="html=1;verticalAlign=bottom;endArrow=open;dashed=1;endSize=8;curved=0;rounded=0;" parent="u3XzuJ6JBvZbT9BNvgNG-1" source="izovBkt0zpYJHhvqd-Qn-8" edge="1">
          <mxGeometry relative="1" as="geometry">
            <mxPoint x="5710" y="2058.25" as="sourcePoint" />
            <mxPoint x="5249" y="2058.5" as="targetPoint" />
          </mxGeometry>
        </mxCell>
        <mxCell id="izovBkt0zpYJHhvqd-Qn-78" value="+getResetPinAttemptsJweResponse(jwe):PinDataModelDto" style="html=1;verticalAlign=bottom;endArrow=block;curved=0;rounded=0;" parent="u3XzuJ6JBvZbT9BNvgNG-1" target="izovBkt0zpYJHhvqd-Qn-43" edge="1">
          <mxGeometry width="80" relative="1" as="geometry">
            <mxPoint x="5250" y="2090.25" as="sourcePoint" />
            <mxPoint x="5456" y="2090.25" as="targetPoint" />
            <mxPoint as="offset" />
          </mxGeometry>
        </mxCell>
        <mxCell id="izovBkt0zpYJHhvqd-Qn-81" value="return" style="html=1;verticalAlign=bottom;endArrow=open;dashed=1;endSize=8;curved=0;rounded=0;" parent="u3XzuJ6JBvZbT9BNvgNG-1" edge="1">
          <mxGeometry relative="1" as="geometry">
            <mxPoint x="5530" y="2151.75" as="sourcePoint" />
            <mxPoint x="5248" y="2151.75" as="targetPoint" />
          </mxGeometry>
        </mxCell>
        <mxCell id="65qvTf93uq9B-4X8LVxH-1" value="Encriptar JWE" style="html=1;align=left;spacingLeft=2;endArrow=block;rounded=0;edgeStyle=orthogonalEdgeStyle;curved=0;rounded=0;" parent="u3XzuJ6JBvZbT9BNvgNG-1" edge="1">
          <mxGeometry relative="1" as="geometry">
            <mxPoint x="5535" y="1961" as="sourcePoint" />
            <Array as="points">
              <mxPoint x="5565" y="1991" />
            </Array>
            <mxPoint x="5540" y="1991" as="targetPoint" />
          </mxGeometry>
        </mxCell>
        <mxCell id="65qvTf93uq9B-4X8LVxH-2" value="Desncriptar JWE" style="html=1;align=left;spacingLeft=2;endArrow=block;rounded=0;edgeStyle=orthogonalEdgeStyle;curved=0;rounded=0;" parent="u3XzuJ6JBvZbT9BNvgNG-1" edge="1">
          <mxGeometry relative="1" as="geometry">
            <mxPoint x="5540" y="2100" as="sourcePoint" />
            <Array as="points">
              <mxPoint x="5570" y="2130" />
            </Array>
            <mxPoint x="5545" y="2130" as="targetPoint" />
          </mxGeometry>
        </mxCell>
      </root>
    </mxGraphModel>
  </diagram>
  <diagram id="14s9LvYmKg_YE35O42do" name="seq GetJWKS">
    <mxGraphModel dx="-2473" dy="-321" grid="1" gridSize="10" guides="1" tooltips="1" connect="1" arrows="1" fold="1" page="1" pageScale="1" pageWidth="1100" pageHeight="850" math="0" shadow="0">
      <root>
        <mxCell id="0" />
        <mxCell id="1" parent="0" />
        <mxCell id="IsfOjOil6X9DwORlfkeB-1" value="CadastralDomainAPIClient" style="shape=umlLifeline;perimeter=lifelinePerimeter;whiteSpace=wrap;html=1;container=1;dropTarget=0;collapsible=0;recursiveResize=0;outlineConnect=0;portConstraint=eastwest;newEdgeStyle={&quot;curved&quot;:0,&quot;rounded&quot;:0};" parent="1" vertex="1">
          <mxGeometry x="3430" y="880" width="170" height="574" as="geometry" />
        </mxCell>
        <mxCell id="IsfOjOil6X9DwORlfkeB-2" value="" style="html=1;points=[[0,0,0,0,5],[0,1,0,0,-5],[1,0,0,0,5],[1,1,0,0,-5]];perimeter=orthogonalPerimeter;outlineConnect=0;targetShapes=umlLifeline;portConstraint=eastwest;newEdgeStyle={&quot;curved&quot;:0,&quot;rounded&quot;:0};" parent="IsfOjOil6X9DwORlfkeB-1" vertex="1">
          <mxGeometry x="80" y="60" width="10" height="500" as="geometry" />
        </mxCell>
        <mxCell id="IsfOjOil6X9DwORlfkeB-3" value="&lt;span style=&quot;border-color: var(--border-color);&quot;&gt;RedisCacheClient&lt;/span&gt;" style="shape=umlLifeline;perimeter=lifelinePerimeter;whiteSpace=wrap;html=1;container=1;dropTarget=0;collapsible=0;recursiveResize=0;outlineConnect=0;portConstraint=eastwest;newEdgeStyle={&quot;curved&quot;:0,&quot;rounded&quot;:0};fontStyle=0" parent="1" vertex="1">
          <mxGeometry x="3640" y="880" width="130" height="574" as="geometry" />
        </mxCell>
        <mxCell id="IsfOjOil6X9DwORlfkeB-4" value="" style="html=1;points=[[0,0,0,0,5],[0,1,0,0,-5],[1,0,0,0,5],[1,1,0,0,-5]];perimeter=orthogonalPerimeter;outlineConnect=0;targetShapes=umlLifeline;portConstraint=eastwest;newEdgeStyle={&quot;curved&quot;:0,&quot;rounded&quot;:0};" parent="IsfOjOil6X9DwORlfkeB-3" vertex="1">
          <mxGeometry x="60" y="60" width="10" height="230" as="geometry" />
        </mxCell>
        <mxCell id="IsfOjOil6X9DwORlfkeB-5" value="getKey(Key)" style="html=1;verticalAlign=bottom;endArrow=block;curved=0;rounded=0;" parent="1" edge="1">
          <mxGeometry width="80" relative="1" as="geometry">
            <mxPoint x="3520" y="971" as="sourcePoint" />
            <mxPoint x="3700" y="971" as="targetPoint" />
          </mxGeometry>
        </mxCell>
        <mxCell id="IsfOjOil6X9DwORlfkeB-6" value="alt" style="shape=umlFrame;whiteSpace=wrap;html=1;pointerEvents=0;" parent="1" vertex="1">
          <mxGeometry x="3430" y="1024" width="1130" height="386" as="geometry" />
        </mxCell>
        <mxCell id="IsfOjOil6X9DwORlfkeB-7" value="[Si la clave existe]" style="text;html=1;align=center;verticalAlign=middle;whiteSpace=wrap;rounded=0;" parent="1" vertex="1">
          <mxGeometry x="3520" y="1024" width="110" height="30" as="geometry" />
        </mxCell>
        <mxCell id="IsfOjOil6X9DwORlfkeB-8" value="[Si no existe]" style="text;html=1;align=left;verticalAlign=middle;whiteSpace=wrap;rounded=0;" parent="1" vertex="1">
          <mxGeometry x="3530" y="1114" width="110" height="30" as="geometry" />
        </mxCell>
        <mxCell id="IsfOjOil6X9DwORlfkeB-9" value="return JWKS" style="html=1;verticalAlign=bottom;endArrow=open;dashed=1;endSize=8;curved=0;rounded=0;" parent="1" edge="1">
          <mxGeometry relative="1" as="geometry">
            <mxPoint x="3700" y="1081" as="sourcePoint" />
            <mxPoint x="3520" y="1081" as="targetPoint" />
          </mxGeometry>
        </mxCell>
        <mxCell id="IsfOjOil6X9DwORlfkeB-10" value="&lt;span style=&quot;border-color: var(--border-color);&quot;&gt;JWKSClient&lt;/span&gt;" style="shape=umlLifeline;perimeter=lifelinePerimeter;whiteSpace=wrap;html=1;container=1;dropTarget=0;collapsible=0;recursiveResize=0;outlineConnect=0;portConstraint=eastwest;newEdgeStyle={&quot;curved&quot;:0,&quot;rounded&quot;:0};fontStyle=0" parent="1" vertex="1">
          <mxGeometry x="4120" y="882.5" width="130" height="571.5" as="geometry" />
        </mxCell>
        <mxCell id="IsfOjOil6X9DwORlfkeB-11" value="" style="html=1;points=[[0,0,0,0,5],[0,1,0,0,-5],[1,0,0,0,5],[1,1,0,0,-5]];perimeter=orthogonalPerimeter;outlineConnect=0;targetShapes=umlLifeline;portConstraint=eastwest;newEdgeStyle={&quot;curved&quot;:0,&quot;rounded&quot;:0};" parent="IsfOjOil6X9DwORlfkeB-10" vertex="1">
          <mxGeometry x="60" y="316" width="10" height="114" as="geometry" />
        </mxCell>
        <mxCell id="IsfOjOil6X9DwORlfkeB-12" value="Obtener nueva clave - getJWKS()" style="html=1;verticalAlign=bottom;endArrow=block;curved=0;rounded=0;" parent="1" target="IsfOjOil6X9DwORlfkeB-11" edge="1">
          <mxGeometry width="80" relative="1" as="geometry">
            <mxPoint x="3520" y="1213.5" as="sourcePoint" />
            <mxPoint x="3870" y="1213.5" as="targetPoint" />
          </mxGeometry>
        </mxCell>
        <mxCell id="IsfOjOil6X9DwORlfkeB-13" value="&lt;div&gt;&lt;span style=&quot;font-weight: 400;&quot;&gt;CadastralDomain&lt;/span&gt;&lt;br&gt;&lt;/div&gt;&lt;span style=&quot;font-weight: 400;&quot;&gt;&amp;lt;&amp;lt;API PLARD&amp;gt;&amp;gt;&lt;/span&gt;" style="shape=umlLifeline;perimeter=lifelinePerimeter;whiteSpace=wrap;html=1;container=1;dropTarget=0;collapsible=0;recursiveResize=0;outlineConnect=0;portConstraint=eastwest;newEdgeStyle={&quot;curved&quot;:0,&quot;rounded&quot;:0};fontStyle=1;fillColor=#dae8fc;strokeColor=#6c8ebf;" parent="1" vertex="1">
          <mxGeometry x="4290" y="882.5" width="100" height="571.5" as="geometry" />
        </mxCell>
        <mxCell id="IsfOjOil6X9DwORlfkeB-14" value="" style="html=1;points=[[0,0,0,0,5],[0,1,0,0,-5],[1,0,0,0,5],[1,1,0,0,-5]];perimeter=orthogonalPerimeter;outlineConnect=0;targetShapes=umlLifeline;portConstraint=eastwest;newEdgeStyle={&quot;curved&quot;:0,&quot;rounded&quot;:0};" parent="IsfOjOil6X9DwORlfkeB-13" vertex="1">
          <mxGeometry x="45" y="324.75" width="10" height="51.25" as="geometry" />
        </mxCell>
        <mxCell id="IsfOjOil6X9DwORlfkeB-15" value="(Get) /v1/jwks" style="html=1;verticalAlign=bottom;endArrow=block;curved=0;rounded=0;" parent="1" edge="1">
          <mxGeometry width="80" relative="1" as="geometry">
            <mxPoint x="4190" y="1220.75" as="sourcePoint" />
            <mxPoint x="4335" y="1220.75" as="targetPoint" />
          </mxGeometry>
        </mxCell>
        <mxCell id="IsfOjOil6X9DwORlfkeB-16" value="return" style="html=1;verticalAlign=bottom;endArrow=open;dashed=1;endSize=8;curved=0;rounded=0;" parent="1" edge="1">
          <mxGeometry relative="1" as="geometry">
            <mxPoint x="4335" y="1244.5" as="sourcePoint" />
            <mxPoint x="4190" y="1244.5" as="targetPoint" />
          </mxGeometry>
        </mxCell>
        <mxCell id="IsfOjOil6X9DwORlfkeB-17" value="&lt;span style=&quot;border-color: var(--border-color);&quot;&gt;JWKSDto&lt;/span&gt;" style="shape=umlLifeline;perimeter=lifelinePerimeter;whiteSpace=wrap;html=1;container=1;dropTarget=0;collapsible=0;recursiveResize=0;outlineConnect=0;portConstraint=eastwest;newEdgeStyle={&quot;curved&quot;:0,&quot;rounded&quot;:0};fontStyle=0" parent="1" vertex="1">
          <mxGeometry x="4430" y="881.5" width="130" height="572.5" as="geometry" />
        </mxCell>
        <mxCell id="IsfOjOil6X9DwORlfkeB-18" value="" style="html=1;points=[[0,0,0,0,5],[0,1,0,0,-5],[1,0,0,0,5],[1,1,0,0,-5]];perimeter=orthogonalPerimeter;outlineConnect=0;targetShapes=umlLifeline;portConstraint=eastwest;newEdgeStyle={&quot;curved&quot;:0,&quot;rounded&quot;:0};" parent="IsfOjOil6X9DwORlfkeB-17" vertex="1">
          <mxGeometry x="60" y="386" width="10" height="30" as="geometry" />
        </mxCell>
        <mxCell id="IsfOjOil6X9DwORlfkeB-19" value="" style="html=1;points=[[0,0,0,0,5],[0,1,0,0,-5],[1,0,0,0,5],[1,1,0,0,-5]];perimeter=orthogonalPerimeter;outlineConnect=0;targetShapes=umlLifeline;portConstraint=eastwest;newEdgeStyle={&quot;curved&quot;:0,&quot;rounded&quot;:0};" parent="IsfOjOil6X9DwORlfkeB-17" vertex="1">
          <mxGeometry x="60" y="160" width="10" height="30" as="geometry" />
        </mxCell>
        <mxCell id="IsfOjOil6X9DwORlfkeB-20" value="crear objeto" style="html=1;verticalAlign=bottom;endArrow=block;curved=0;rounded=0;" parent="1" edge="1">
          <mxGeometry width="80" relative="1" as="geometry">
            <mxPoint x="4190" y="1282.5" as="sourcePoint" />
            <mxPoint x="4490" y="1282.5" as="targetPoint" />
          </mxGeometry>
        </mxCell>
        <mxCell id="IsfOjOil6X9DwORlfkeB-21" value="return JWKS" style="html=1;verticalAlign=bottom;endArrow=open;dashed=1;endSize=8;curved=0;rounded=0;" parent="1" edge="1">
          <mxGeometry relative="1" as="geometry">
            <mxPoint x="4180" y="1298.5" as="sourcePoint" />
            <mxPoint x="3520" y="1298.5" as="targetPoint" />
          </mxGeometry>
        </mxCell>
        <mxCell id="IsfOjOil6X9DwORlfkeB-22" value="setKey(Key, JWKS)" style="html=1;verticalAlign=bottom;endArrow=block;curved=0;rounded=0;" parent="1" edge="1">
          <mxGeometry width="80" relative="1" as="geometry">
            <mxPoint x="3520" y="1330" as="sourcePoint" />
            <mxPoint x="3700" y="1330" as="targetPoint" />
          </mxGeometry>
        </mxCell>
        <mxCell id="IsfOjOil6X9DwORlfkeB-23" value="" style="html=1;points=[[0,0,0,0,5],[0,1,0,0,-5],[1,0,0,0,5],[1,1,0,0,-5]];perimeter=orthogonalPerimeter;outlineConnect=0;targetShapes=umlLifeline;portConstraint=eastwest;newEdgeStyle={&quot;curved&quot;:0,&quot;rounded&quot;:0};" parent="1" vertex="1">
          <mxGeometry x="3700" y="1318" width="10" height="76" as="geometry" />
        </mxCell>
        <mxCell id="IsfOjOil6X9DwORlfkeB-24" value="&lt;span style=&quot;font-weight: 400;&quot;&gt;Cache&lt;/span&gt;&lt;div&gt;&lt;span style=&quot;font-weight: 400;&quot;&gt;&amp;lt;&amp;lt;Redis&amp;gt;&amp;gt;&lt;/span&gt;&lt;/div&gt;" style="shape=umlLifeline;perimeter=lifelinePerimeter;whiteSpace=wrap;html=1;container=1;dropTarget=0;collapsible=0;recursiveResize=0;outlineConnect=0;portConstraint=eastwest;newEdgeStyle={&quot;curved&quot;:0,&quot;rounded&quot;:0};fontStyle=1;fillColor=#dae8fc;strokeColor=#6c8ebf;" parent="1" vertex="1">
          <mxGeometry x="3810" y="880" width="100" height="574" as="geometry" />
        </mxCell>
        <mxCell id="IsfOjOil6X9DwORlfkeB-25" value="" style="html=1;points=[[0,0,0,0,5],[0,1,0,0,-5],[1,0,0,0,5],[1,1,0,0,-5]];perimeter=orthogonalPerimeter;outlineConnect=0;targetShapes=umlLifeline;portConstraint=eastwest;newEdgeStyle={&quot;curved&quot;:0,&quot;rounded&quot;:0};" parent="IsfOjOil6X9DwORlfkeB-24" vertex="1">
          <mxGeometry x="45" y="78.5" width="10" height="51.5" as="geometry" />
        </mxCell>
        <mxCell id="IsfOjOil6X9DwORlfkeB-26" value="" style="html=1;points=[[0,0,0,0,5],[0,1,0,0,-5],[1,0,0,0,5],[1,1,0,0,-5]];perimeter=orthogonalPerimeter;outlineConnect=0;targetShapes=umlLifeline;portConstraint=eastwest;newEdgeStyle={&quot;curved&quot;:0,&quot;rounded&quot;:0};" parent="IsfOjOil6X9DwORlfkeB-24" vertex="1">
          <mxGeometry x="45" y="496.5" width="10" height="23.5" as="geometry" />
        </mxCell>
        <mxCell id="IsfOjOil6X9DwORlfkeB-27" value="get(key)" style="html=1;verticalAlign=bottom;endArrow=block;curved=0;rounded=0;" parent="1" edge="1">
          <mxGeometry x="-0.0027" width="80" relative="1" as="geometry">
            <mxPoint x="3710" y="983" as="sourcePoint" />
            <mxPoint x="3855" y="983" as="targetPoint" />
            <mxPoint as="offset" />
          </mxGeometry>
        </mxCell>
        <mxCell id="IsfOjOil6X9DwORlfkeB-28" value="return registro" style="html=1;verticalAlign=bottom;endArrow=open;dashed=1;endSize=8;curved=0;rounded=0;" parent="1" edge="1">
          <mxGeometry relative="1" as="geometry">
            <mxPoint x="3855" y="1005" as="sourcePoint" />
            <mxPoint x="3710" y="1005" as="targetPoint" />
          </mxGeometry>
        </mxCell>
        <mxCell id="IsfOjOil6X9DwORlfkeB-29" value="&lt;span style=&quot;border-color: var(--border-color);&quot;&gt;RedisTranslator&lt;/span&gt;" style="shape=umlLifeline;perimeter=lifelinePerimeter;whiteSpace=wrap;html=1;container=1;dropTarget=0;collapsible=0;recursiveResize=0;outlineConnect=0;portConstraint=eastwest;newEdgeStyle={&quot;curved&quot;:0,&quot;rounded&quot;:0};fontStyle=0" parent="1" vertex="1">
          <mxGeometry x="3950" y="881.5" width="130" height="572.5" as="geometry" />
        </mxCell>
        <mxCell id="IsfOjOil6X9DwORlfkeB-30" value="" style="html=1;points=[[0,0,0,0,5],[0,1,0,0,-5],[1,0,0,0,5],[1,1,0,0,-5]];perimeter=orthogonalPerimeter;outlineConnect=0;targetShapes=umlLifeline;portConstraint=eastwest;newEdgeStyle={&quot;curved&quot;:0,&quot;rounded&quot;:0};" parent="IsfOjOil6X9DwORlfkeB-29" vertex="1">
          <mxGeometry x="60" y="154" width="10" height="36" as="geometry" />
        </mxCell>
        <mxCell id="IsfOjOil6X9DwORlfkeB-31" value="" style="html=1;points=[[0,0,0,0,5],[0,1,0,0,-5],[1,0,0,0,5],[1,1,0,0,-5]];perimeter=orthogonalPerimeter;outlineConnect=0;targetShapes=umlLifeline;portConstraint=eastwest;newEdgeStyle={&quot;curved&quot;:0,&quot;rounded&quot;:0};" parent="IsfOjOil6X9DwORlfkeB-29" vertex="1">
          <mxGeometry x="60" y="441.5" width="10" height="53.5" as="geometry" />
        </mxCell>
        <mxCell id="IsfOjOil6X9DwORlfkeB-32" value="RedisToJWKS(registro)" style="html=1;verticalAlign=bottom;endArrow=block;curved=0;rounded=0;" parent="1" edge="1">
          <mxGeometry x="-0.0027" width="80" relative="1" as="geometry">
            <mxPoint x="3710" y="1046" as="sourcePoint" />
            <mxPoint x="4010" y="1046" as="targetPoint" />
            <mxPoint as="offset" />
          </mxGeometry>
        </mxCell>
        <mxCell id="IsfOjOil6X9DwORlfkeB-33" value="crear objeto" style="html=1;verticalAlign=bottom;endArrow=block;curved=0;rounded=0;" parent="1" target="IsfOjOil6X9DwORlfkeB-19" edge="1">
          <mxGeometry x="-0.0027" width="80" relative="1" as="geometry">
            <mxPoint x="4020" y="1052" as="sourcePoint" />
            <mxPoint x="4550" y="1052" as="targetPoint" />
            <mxPoint as="offset" />
          </mxGeometry>
        </mxCell>
        <mxCell id="IsfOjOil6X9DwORlfkeB-34" value="return JWKS" style="html=1;verticalAlign=bottom;endArrow=open;dashed=1;endSize=8;curved=0;rounded=0;" parent="1" edge="1">
          <mxGeometry relative="1" as="geometry">
            <mxPoint x="4010" y="1067.5" as="sourcePoint" />
            <mxPoint x="3710" y="1067.5" as="targetPoint" />
          </mxGeometry>
        </mxCell>
        <mxCell id="IsfOjOil6X9DwORlfkeB-35" value="return error" style="html=1;verticalAlign=bottom;endArrow=open;dashed=1;endSize=8;curved=0;rounded=0;" parent="1" edge="1">
          <mxGeometry relative="1" as="geometry">
            <mxPoint x="3700" y="1158" as="sourcePoint" />
            <mxPoint x="3520" y="1158" as="targetPoint" />
          </mxGeometry>
        </mxCell>
        <mxCell id="IsfOjOil6X9DwORlfkeB-36" value="JWKSToRedis(JWKS)" style="html=1;verticalAlign=bottom;endArrow=block;curved=0;rounded=0;" parent="1" edge="1">
          <mxGeometry x="-0.0027" width="80" relative="1" as="geometry">
            <mxPoint x="3710" y="1338" as="sourcePoint" />
            <mxPoint x="4010" y="1338" as="targetPoint" />
            <mxPoint as="offset" />
          </mxGeometry>
        </mxCell>
        <mxCell id="IsfOjOil6X9DwORlfkeB-37" value="return registro" style="html=1;verticalAlign=bottom;endArrow=open;dashed=1;endSize=8;curved=0;rounded=0;" parent="1" edge="1">
          <mxGeometry relative="1" as="geometry">
            <mxPoint x="4010" y="1359.75" as="sourcePoint" />
            <mxPoint x="3710" y="1359.75" as="targetPoint" />
          </mxGeometry>
        </mxCell>
        <mxCell id="IsfOjOil6X9DwORlfkeB-38" value="set(key,registro)" style="html=1;verticalAlign=bottom;endArrow=block;curved=0;rounded=0;" parent="1" edge="1">
          <mxGeometry x="-0.0027" width="80" relative="1" as="geometry">
            <mxPoint x="3710" y="1382.5" as="sourcePoint" />
            <mxPoint x="3855" y="1382.5" as="targetPoint" />
            <mxPoint as="offset" />
          </mxGeometry>
        </mxCell>
        <mxCell id="IsfOjOil6X9DwORlfkeB-39" value="" style="endArrow=none;dashed=1;html=1;dashPattern=1 3;strokeWidth=2;rounded=0;" parent="1" edge="1">
          <mxGeometry width="50" height="50" relative="1" as="geometry">
            <mxPoint x="3400" y="1105" as="sourcePoint" />
            <mxPoint x="4600" y="1105" as="targetPoint" />
          </mxGeometry>
        </mxCell>
        <mxCell id="IsfOjOil6X9DwORlfkeB-40" value="getJWKS()" style="html=1;verticalAlign=bottom;endArrow=block;curved=0;rounded=0;" parent="1" edge="1">
          <mxGeometry width="80" relative="1" as="geometry">
            <mxPoint x="3330" y="960" as="sourcePoint" />
            <mxPoint x="3510" y="960" as="targetPoint" />
          </mxGeometry>
        </mxCell>
        <mxCell id="IsfOjOil6X9DwORlfkeB-41" value="return JWKS" style="html=1;verticalAlign=bottom;endArrow=open;dashed=1;endSize=8;curved=0;rounded=0;" parent="1" edge="1">
          <mxGeometry relative="1" as="geometry">
            <mxPoint x="3510" y="1430" as="sourcePoint" />
            <mxPoint x="3330" y="1430" as="targetPoint" />
          </mxGeometry>
        </mxCell>
      </root>
    </mxGraphModel>
  </diagram>
  <diagram id="jbITYMCw_M0K05CnKCsL" name="Seq PistaAuditoria">
    <mxGraphModel dx="-2473" dy="-321" grid="1" gridSize="10" guides="1" tooltips="1" connect="1" arrows="1" fold="1" page="1" pageScale="1" pageWidth="1100" pageHeight="850" math="0" shadow="0">
      <root>
        <mxCell id="0" />
        <mxCell id="1" parent="0" />
        <mxCell id="Bgk0NKFnX23tzV5PXrrx-1" value="EventKafkaPublisher" style="shape=umlLifeline;perimeter=lifelinePerimeter;whiteSpace=wrap;html=1;container=1;dropTarget=0;collapsible=0;recursiveResize=0;outlineConnect=0;portConstraint=eastwest;newEdgeStyle={&quot;curved&quot;:0,&quot;rounded&quot;:0};fontStyle=0" parent="1" vertex="1">
          <mxGeometry x="3450" y="880" width="130" height="251" as="geometry" />
        </mxCell>
        <mxCell id="Bgk0NKFnX23tzV5PXrrx-2" value="" style="html=1;points=[[0,0,0,0,5],[0,1,0,0,-5],[1,0,0,0,5],[1,1,0,0,-5]];perimeter=orthogonalPerimeter;outlineConnect=0;targetShapes=umlLifeline;portConstraint=eastwest;newEdgeStyle={&quot;curved&quot;:0,&quot;rounded&quot;:0};" parent="Bgk0NKFnX23tzV5PXrrx-1" vertex="1">
          <mxGeometry x="60" y="60" width="10" height="160" as="geometry" />
        </mxCell>
        <mxCell id="Bgk0NKFnX23tzV5PXrrx-3" value="sendAudit(pinDataModel)" style="html=1;verticalAlign=bottom;endArrow=block;curved=0;rounded=0;" parent="1" target="Bgk0NKFnX23tzV5PXrrx-2" edge="1">
          <mxGeometry width="80" relative="1" as="geometry">
            <mxPoint x="3330" y="951" as="sourcePoint" />
            <mxPoint x="3520" y="951" as="targetPoint" />
            <mxPoint as="offset" />
          </mxGeometry>
        </mxCell>
        <mxCell id="Bgk0NKFnX23tzV5PXrrx-4" value="&lt;div&gt;&lt;span style=&quot;font-weight: 400;&quot;&gt;Kafka&lt;/span&gt;&lt;/div&gt;" style="shape=umlLifeline;perimeter=lifelinePerimeter;whiteSpace=wrap;html=1;container=1;dropTarget=0;collapsible=0;recursiveResize=0;outlineConnect=0;portConstraint=eastwest;newEdgeStyle={&quot;curved&quot;:0,&quot;rounded&quot;:0};fontStyle=1;fillColor=#dae8fc;strokeColor=#6c8ebf;" parent="1" vertex="1">
          <mxGeometry x="3820" y="880" width="100" height="251" as="geometry" />
        </mxCell>
        <mxCell id="Bgk0NKFnX23tzV5PXrrx-5" value="" style="html=1;points=[[0,0,0,0,5],[0,1,0,0,-5],[1,0,0,0,5],[1,1,0,0,-5]];perimeter=orthogonalPerimeter;outlineConnect=0;targetShapes=umlLifeline;portConstraint=eastwest;newEdgeStyle={&quot;curved&quot;:0,&quot;rounded&quot;:0};" parent="Bgk0NKFnX23tzV5PXrrx-4" vertex="1">
          <mxGeometry x="45" y="151" width="10" height="44.25" as="geometry" />
        </mxCell>
        <mxCell id="Bgk0NKFnX23tzV5PXrrx-6" value="&lt;span style=&quot;font-size: 11px; text-align: left; text-wrap: wrap; background-color: rgb(251, 251, 251);&quot;&gt;auditoriaToEvent(&lt;span style=&quot;text-align: center; text-wrap: nowrap; background-color: rgb(255, 255, 255);&quot;&gt;pinDataModel&lt;/span&gt;)&lt;/span&gt;" style="html=1;verticalAlign=bottom;endArrow=block;curved=0;rounded=0;fontSize=11;" parent="1" target="Bgk0NKFnX23tzV5PXrrx-9" edge="1">
          <mxGeometry x="-0.0027" width="80" relative="1" as="geometry">
            <mxPoint x="3520" y="988" as="sourcePoint" />
            <mxPoint x="3680" y="988" as="targetPoint" />
            <mxPoint as="offset" />
          </mxGeometry>
        </mxCell>
        <mxCell id="Bgk0NKFnX23tzV5PXrrx-7" value="return" style="html=1;verticalAlign=bottom;endArrow=open;dashed=1;endSize=8;curved=0;rounded=0;" parent="1" edge="1">
          <mxGeometry relative="1" as="geometry">
            <mxPoint x="3865" y="1064.125" as="sourcePoint" />
            <mxPoint x="3520" y="1064.125" as="targetPoint" />
          </mxGeometry>
        </mxCell>
        <mxCell id="Bgk0NKFnX23tzV5PXrrx-8" value="EventMessageTranslator" style="shape=umlLifeline;perimeter=lifelinePerimeter;whiteSpace=wrap;html=1;container=1;dropTarget=0;collapsible=0;recursiveResize=0;outlineConnect=0;portConstraint=eastwest;newEdgeStyle={&quot;curved&quot;:0,&quot;rounded&quot;:0};fontStyle=0" parent="1" vertex="1">
          <mxGeometry x="3640" y="880" width="140" height="251" as="geometry" />
        </mxCell>
        <mxCell id="Bgk0NKFnX23tzV5PXrrx-9" value="" style="html=1;points=[[0,0,0,0,5],[0,1,0,0,-5],[1,0,0,0,5],[1,1,0,0,-5]];perimeter=orthogonalPerimeter;outlineConnect=0;targetShapes=umlLifeline;portConstraint=eastwest;newEdgeStyle={&quot;curved&quot;:0,&quot;rounded&quot;:0};" parent="Bgk0NKFnX23tzV5PXrrx-8" vertex="1">
          <mxGeometry x="65" y="100" width="10" height="40" as="geometry" />
        </mxCell>
        <mxCell id="Bgk0NKFnX23tzV5PXrrx-10" value="publicar evento" style="html=1;verticalAlign=bottom;endArrow=block;curved=0;rounded=0;" parent="1" edge="1">
          <mxGeometry x="-0.0027" width="80" relative="1" as="geometry">
            <mxPoint x="3520" y="1044" as="sourcePoint" />
            <mxPoint x="3865" y="1044" as="targetPoint" />
            <mxPoint as="offset" />
          </mxGeometry>
        </mxCell>
        <mxCell id="Bgk0NKFnX23tzV5PXrrx-11" value="return string" style="html=1;verticalAlign=bottom;endArrow=open;dashed=1;endSize=8;curved=0;rounded=0;" parent="1" source="Bgk0NKFnX23tzV5PXrrx-9" edge="1">
          <mxGeometry relative="1" as="geometry">
            <mxPoint x="3800" y="1007.75" as="sourcePoint" />
            <mxPoint x="3520" y="1007.75" as="targetPoint" />
          </mxGeometry>
        </mxCell>
        <mxCell id="Bgk0NKFnX23tzV5PXrrx-12" value="return" style="html=1;verticalAlign=bottom;endArrow=open;dashed=1;endSize=8;curved=0;rounded=0;" parent="1" source="Bgk0NKFnX23tzV5PXrrx-2" edge="1">
          <mxGeometry relative="1" as="geometry">
            <mxPoint x="3510" y="1224" as="sourcePoint" />
            <mxPoint x="3330" y="1091" as="targetPoint" />
          </mxGeometry>
        </mxCell>
      </root>
    </mxGraphModel>
  </diagram>
  <diagram id="BPGRbByOOsnsyosqzG2F" name="UTEST">
    <mxGraphModel dx="786" dy="497" grid="1" gridSize="10" guides="1" tooltips="1" connect="1" arrows="1" fold="1" page="1" pageScale="1" pageWidth="827" pageHeight="1169" math="0" shadow="0">
      <root>
        <mxCell id="0" />
        <mxCell id="1" parent="0" />
        <mxCell id="K-PokOc_BuzZ69-kzJz--2" value="&lt;h1 style=&quot;margin-top: 0px;&quot;&gt;UTEST&lt;/h1&gt;&lt;h1 style=&quot;margin-top: 0px;&quot;&gt;&lt;span style=&quot;background-color: transparent; color: light-dark(rgb(0, 0, 0), rgb(255, 255, 255)); font-size: 12px; font-weight: normal;&quot;&gt;MPT3&lt;/span&gt;&lt;/h1&gt;&lt;p&gt;Validación exitosa de consulta tarjetas por cuenta&amp;nbsp;&lt;/p&gt;&lt;p&gt;&lt;br&gt;&lt;/p&gt;&lt;p&gt;Validación exitosa de consulta de configuración de estatus cardId (CARD-PLACE-LOCATOR)&lt;/p&gt;&lt;p&gt;&lt;br&gt;&lt;/p&gt;&lt;p&gt;Validación exitosa de obtención de llaves publicas JWKS&lt;/p&gt;&lt;p&gt;&lt;br&gt;&lt;/p&gt;&lt;p&gt;Validación exitosa de encriptación de JWE&lt;/p&gt;&lt;p&gt;&lt;br&gt;&lt;/p&gt;&lt;p&gt;Validación exitosa de consumo de servicio API PLARD CardSecurity /{card_id}/reset_pin_attempts&lt;/p&gt;&lt;p&gt;&lt;br&gt;&lt;/p&gt;&lt;p&gt;Validación exitosa de desencriptación de JWE&lt;/p&gt;&lt;p&gt;&lt;br&gt;&lt;/p&gt;&lt;p&gt;Validación exitosa de generación de trama PS7&amp;nbsp;&lt;/p&gt;&lt;p&gt;&lt;br&gt;&lt;/p&gt;&lt;p&gt;Validación exitosa de publicación de trama PS7&lt;/p&gt;" style="text;html=1;whiteSpace=wrap;overflow=hidden;rounded=0;" parent="1" vertex="1">
          <mxGeometry x="20" y="20" width="630" height="670" as="geometry" />
        </mxCell>
      </root>
    </mxGraphModel>
  </diagram>
</mxfile>
